<?xml version="1.0" encoding="UTF-8" standalone="no"?>
<!-- Created with Inkscape (http://www.inkscape.org/) -->

<svg
   xmlns:dc="http://purl.org/dc/elements/1.1/"
   xmlns:cc="http://creativecommons.org/ns#"
   xmlns:rdf="http://www.w3.org/1999/02/22-rdf-syntax-ns#"
   xmlns:svg="http://www.w3.org/2000/svg"
   xmlns="http://www.w3.org/2000/svg"
   xmlns:sodipodi="http://sodipodi.sourceforge.net/DTD/sodipodi-0.dtd"
   xmlns:inkscape="http://www.inkscape.org/namespaces/inkscape"
   width="210mm"
   height="297mm"
   viewBox="0 0 210 297"
   version="1.1"
   id="svg8"
   inkscape:version="0.92.5 (2060ec1f9f, 2020-04-08)"
   sodipodi:docname="su.svg">
  <defs
     id="defs2" />
  <sodipodi:namedview
     id="base"
     pagecolor="#ffffff"
     bordercolor="#666666"
     borderopacity="1.0"
     inkscape:pageopacity="0.0"
     inkscape:pageshadow="2"
     inkscape:zoom="0.98994949"
     inkscape:cx="400"
     inkscape:cy="676.01886"
     inkscape:document-units="mm"
     inkscape:current-layer="layer1"
     showgrid="false"
     inkscape:window-width="2508"
     inkscape:window-height="1376"
     inkscape:window-x="52"
     inkscape:window-y="135"
     inkscape:window-maximized="1" />
  <metadata
     id="metadata5">
    <rdf:RDF>
      <cc:Work
         rdf:about="">
        <dc:format>image/svg+xml</dc:format>
        <dc:type
           rdf:resource="http://purl.org/dc/dcmitype/StillImage" />
        <dc:title></dc:title>
      </cc:Work>
    </rdf:RDF>
  </metadata>
  <g
     inkscape:label="Layer 1"
     inkscape:groupmode="layer"
     id="layer1">
    <path
       id="path4790"
       transform="scale(0.26458333)"
       style="fill:#FFFFFF;stroke-width:0.74843973"
       d="m 664.42578,232.04688 c -2.2385,0.008 -9.30441,5.0843 -10.88867,7.82226 -2.09359,3.61798 -2.13822,4.80049 -0.20117,5.29688 0.83168,0.21312 1.51172,0.71753 1.51172,1.12109 0,0.43963 -0.5315,0.48637 -1.32422,0.11719 -0.72775,-0.3389 -2.85333,-0.62211 -4.72461,-0.62891 -3.52071,-0.013 -3.09684,-0.23569 -18.89258,9.90625 -6.49429,4.16978 -9.47129,7.1251 -14.85742,14.74805 -5.5344,7.83275 -5.61135,8.82378 -0.79102,10.14843 3.30781,0.90943 5.08478,2.37523 3.47852,2.86915 -0.58934,0.18121 -2.19694,0.68099 -3.57227,1.11132 -2.34455,0.73361 -2.48565,0.67941 -2.26758,-0.86132 0.18664,-1.31965 -0.14026,-1.64258 -1.6582,-1.64258 -1.7447,0 -1.90742,0.29702 -2.11719,3.85156 -0.1977,3.3517 -0.65388,4.31423 -3.51171,7.42969 -1.80643,1.96881 -3.80117,4.79411 -4.4336,6.27734 -1.44336,3.3851 -4.15114,5.03185 -5.4375,3.3086 -1.57701,-2.11337 -4.71339,-2.81778 -7.48828,-1.68165 -3.01073,1.2327 -4.91312,3.12243 -8.92188,8.85938 -2.76225,3.95388 -3.22525,4.29901 -5.21874,3.9082 -1.20299,-0.23577 -3.03673,-0.11185 -4.07618,0.27539 -1.48641,0.55379 -1.89062,0.471 -1.89062,-0.38867 0,-1.95882 -5.79471,-1.41084 -8.00781,0.75781 -1.0396,1.01872 -2.46893,1.86493 -3.17774,1.87891 -0.70813,0.014 -4.00466,1.4289 -7.32812,3.14453 -0.19508,0.58893 -0.41745,1.16074 -0.69141,1.69531 0.42158,-0.22045 0.73583,-0.40033 1.24609,-0.65625 3.01671,-1.51299 5.90989,-2.74432 6.42969,-2.73828 0.60155,0.007 0.94531,1.12092 0.94531,3.06446 0,2.63089 0.15787,2.92728 1.13477,2.13281 0.6446,-0.52421 1.13281,-2.13945 1.13281,-3.74219 0,-3.38253 1.5739,-5.14844 4.58985,-5.14844 1.71016,0 2.21484,0.33601 2.21484,1.48047 0,1.72912 0.28519,1.7954 2.50781,0.57813 0.9083,-0.49746 2.99844,-0.91369 4.64453,-0.92578 2.84346,-0.0206 3.21292,-0.31066 7.42774,-5.80274 6.27522,-8.17686 9.04871,-9.26894 14.22265,-5.59961 2.27305,1.61204 5.20065,0.12855 6.81836,-3.45508 0.81835,-1.81286 2.83427,-4.8181 4.47852,-6.67968 3.13587,-3.55046 3.95621,-5.47049 3.59375,-8.40821 -0.12015,-0.9738 0.17895,-1.91003 0.66601,-2.08008 0.55488,-0.19306 0.74271,0.22852 0.50196,1.13086 -0.49788,1.86564 0.69108,2.54809 2.90429,1.66797 0.96681,-0.38445 2.71497,-0.90032 3.88477,-1.14648 1.78171,-0.37491 2.0871,-0.77392 1.88867,-2.45899 -0.19895,-1.69067 -0.80776,-2.18021 -3.82617,-3.06836 -1.97522,-0.58058 -3.5918,-1.32669 -3.5918,-1.65624 0,-0.55033 2.77129,-4.57925 8.72461,-12.67969 1.57077,-2.13717 6.00509,-5.55443 13.98828,-10.7793 l 11.6875,-7.64844 4.63282,0.4375 c 2.5483,0.24057 5.18495,0.22884 5.85937,-0.0254 1.55592,-0.58526 1.57,-2.06227 0.0352,-3.3125 -0.98646,-0.8022 -1.30555,-0.78721 -1.84961,0.0742 -1.3849,2.19593 -1.66702,-0.15449 -0.35938,-2.99609 1.00611,-2.18637 2.42792,-3.57502 5.31446,-5.19336 2.76111,-1.54803 3.98006,-2.17711 4.50781,-2.10938 0.31665,0.0406 0.38388,0.33287 0.38672,0.82617 0.002,0.50936 0.49109,1.83749 1.08398,2.95118 0.62589,1.17569 0.78214,2.20342 0.37305,2.45117 -1.24112,0.75164 -0.75421,2.56055 0.68945,2.56055 0.76725,0 2.01546,0.6734 2.77344,1.49414 0.85353,0.9242 1.90568,1.32738 2.76367,1.06054 1.45648,-0.45299 1.80767,0.69368 0.91211,2.98047 -0.73081,1.86624 -7.09714,6.32031 -9.0332,6.32031 -2.25596,0 -4.10352,1.8646 -4.10352,4.14258 0,2.36628 -3.14065,3.96661 -4.92969,2.51172 -0.99632,-0.81031 -1.39788,-0.77094 -2.42773,0.23828 -1.14206,1.1192 -1.13171,1.32394 0.1582,2.72071 0.76698,0.83043 1.76593,1.46707 2.21875,1.41601 5.4937,-0.61955 7.5774,7.54014 2.99219,11.7168 -3.5077,3.19516 -1.65286,4.79431 2.41992,2.08594 3.07419,-2.0443 2.94603,-2.02146 10.53321,-1.875 7.20083,0.13901 8.1072,1.07359 5.20898,5.36132 -2.13906,3.16486 -2.18357,3.4355 -2.06641,12.46289 0.15549,11.99647 0.95106,19.83829 2.27344,22.39258 0.95702,1.84892 0.92964,2.09047 -0.28711,2.4668 -3.82926,1.18434 -4.9313,2.017 -6.00586,4.53711 -0.74948,1.75771 -1.03435,3.96259 -0.78906,6.09375 0.34394,2.99013 0.27273,3.19294 -0.66992,1.92969 -1.44987,-1.94296 -2.09152,-1.00741 -1.94336,2.83007 0.0813,2.10738 -0.27343,3.56756 -1.01172,4.16797 -1.51117,1.22909 -1.4343,2.45447 0.375,5.92969 0.83169,1.59748 1.51367,3.8729 1.51367,5.05664 0,3.91248 4.62601,7.8753 5.77344,4.94531 0.72423,-1.84945 2.30592,-1.25852 3.95508,1.48047 0.85874,1.4262 2.16838,2.60226 2.91015,2.61133 0.7417,0.009 2.19931,0.65782 3.23828,1.44336 1.82794,1.38123 1.84247,1.46185 0.45508,2.46094 -2.60594,1.87665 -0.5893,5.76122 4.9375,9.50976 1.76119,1.19457 1.76537,1.23353 0.46094,3.91407 -1.95031,4.00767 -1.67734,6.65125 0.99414,9.63281 2.24871,2.50976 2.27664,2.63074 1.03711,4.48437 -1.22914,1.83829 -1.1896,2.0723 1.0918,6.61328 2.31416,4.60634 2.72323,7.42592 1.70703,11.73829 l -0.47656,2.02539 -9.83008,-7.41602 c -17.54283,-13.23761 -21.35469,-17.22784 -22.63281,-23.67969 -0.28256,-1.4262 -0.89036,-3.33802 -1.34961,-4.25 -0.62011,-1.23141 -0.58771,-2.66706 0.125,-5.57812 0.83822,-3.4241 0.74953,-5.25881 -0.69727,-14.50977 -0.91094,-5.82465 -1.58094,-11.9834 -1.49023,-13.68554 0.25666,-4.81587 0.14605,-5.09708 -3.46094,-8.86524 -2.73105,-2.85301 -3.305,-3.90516 -2.92969,-5.37109 0.64116,-2.50333 -1.42958,-2.45387 -2.59961,0.0625 -1.22642,2.63772 -1.13049,3.16125 1.03711,5.68554 1.37598,1.60058 1.76127,2.67397 1.375,3.81055 -0.29578,0.87045 -0.47396,4.00362 -0.39648,6.96289 0.1406,5.37517 0.13923,5.37957 -1.55664,4.44531 -0.93366,-0.51435 -2.40415,-1.69859 -3.26758,-2.63085 -1.4761,-1.59472 -4.11719,-1.67712 -4.11719,-0.12891 0,0.33479 -0.46727,1.06466 -1.03711,1.62305 -0.56988,0.55839 -1.60221,2.08965 -2.29492,3.40234 -1.16145,2.20116 -1.16637,3.02114 -0.0977,10.54687 0.63882,4.48809 1.16627,8.39787 1.17383,8.68946 0.006,0.2916 0.31931,1.00871 0.69727,1.59375 0.54202,0.8394 0.91841,0.87716 1.7832,0.17383 0.60272,-0.49021 1.66343,-0.67895 2.35742,-0.41797 1.07656,0.40481 0.94089,0.76142 -0.92578,2.42187 -1.20336,1.0704 -2.41311,2.85248 -2.6875,3.96094 -0.27439,1.1085 -1.42966,2.86624 -2.56836,3.90625 -1.98134,1.80945 -2.08119,1.82649 -2.3125,0.39258 -0.30811,-1.91108 -0.52434,-1.89086 -5.05664,0.45898 -4.27733,2.21756 -5.06321,3.05112 -4.61133,4.89844 0.35887,1.46717 -1.39414,3.87282 -3.79883,5.21289 -3.10488,1.73027 -9.95095,7.13484 -11.53125,9.10352 -1.97967,2.46618 -2.85029,5.5799 -3.81445,13.64843 -0.41389,3.46368 -1.10511,7.4632 -1.53711,8.88672 -0.432,1.42352 -0.78515,3.88997 -0.78515,5.48047 0,1.5905 -1.02203,6.01381 -2.26954,9.83008 -3.09191,9.45842 -3.09402,9.44562 1.43555,8.91992 3.23388,-0.37531 3.75265,-0.24771 4.08789,1.00781 0.56024,2.09938 2.54191,1.75655 3.4668,-0.59961 0.5763,-1.468 0.78118,-1.62232 0.73242,-0.55468 -0.12862,2.81159 0.11106,3.33398 1.53125,3.33398 1.86966,0 4.2279,-3.55931 3.97656,-6.00391 -0.15749,-1.53218 0.26781,-2.11916 2.07227,-2.85156 2.00322,-0.81309 2.76936,-0.69974 6.4668,0.95899 3.09184,1.38705 4.07403,2.18215 3.74218,3.02929 -0.2623,0.66974 0.0365,1.33202 0.7168,1.58789 1.90152,0.71501 3.53255,3.77893 4.36719,8.20313 0.43041,2.28151 2.5175,7.46187 4.63672,11.51367 l 3.85156,7.36719 0.20312,13.10351 c 0.11124,7.20613 -0.12014,14.31491 -0.51367,15.79883 -0.39345,1.48392 -1.19046,6.01859 -1.77148,10.07617 -1.07422,7.50063 -3.39635,13.41886 -6.21875,15.84766 -2.02515,1.74278 -4.52998,2.324 -6.21289,1.44141 -1.7633,-0.92474 -2.53745,-0.15394 -3.84766,3.83203 -1.14977,3.49776 -2.35375,3.63093 -1.78516,0.19726 0.44901,-2.71117 -0.63407,-6.14047 -2.92968,-9.27343 -2.04053,-2.78484 -0.91507,-6.04851 2.45703,-7.12696 3.58507,-1.14659 4.35357,-4.26755 3.04687,-12.37304 -0.53741,-3.33332 -0.93661,-6.89338 -0.88672,-7.91211 0.13301,-2.72383 -1.46004,-5.18555 -3.35351,-5.18555 -1.12067,0 -2.5829,1.27351 -4.59766,4.00781 -2.41402,3.27621 -7.16156,7.10547 -8.8125,7.10547 -0.19869,0 -1.25866,-1.26824 -2.35351,-2.81641 -1.72547,-2.43983 -2.59414,-2.93634 -6.52735,-3.73242 -3.45819,-0.7 -5.29729,-0.71581 -7.72851,-0.0762 -2.97604,0.78527 -3.29333,0.72045 -4.72657,-0.95898 -14.08854,-16.5089 -14.38209,-16.75275 -20.70312,-17.23438 -7.31656,-0.55744 -15.65,3.24995 -18.0918,8.26758 -1.27268,2.61524 -1.2648,2.6868 0.40235,3.77148 2.01222,1.30923 2.20541,3.99912 0.56445,7.84766 -0.62377,1.46287 -1.13281,4.60845 -1.13281,6.99023 0,3.75999 -0.27479,4.58729 -2.08008,6.27149 -2.00032,1.86633 -2.39101,1.93496 -10.29102,1.82422 l -8.21093,-0.11524 -3.50782,3.85352 c -6.81033,7.48184 -15.95498,9.5584 -24.74023,5.61719 -5.84761,-2.62337 -10.69895,-3.02939 -15.81836,-1.32422 -5.55031,1.84872 -9.6956,0.73597 -11.30273,-3.03321 -1.1932,-2.79832 -2.13603,-3.2875 -10.87891,-5.63867 l -5.55273,-1.49219 -1.75782,1.61915 c -2.97006,2.73418 -3.74193,5.44925 -2.33398,8.21484 0.66512,1.30651 1.20898,2.81143 1.20898,3.3457 0,1.96271 -3.01987,2.6612 -9.20117,2.125 -4.7591,-0.4128 -6.19764,-0.81981 -6.91016,-1.95117 -1.17014,-1.85794 -8.15053,-3.86133 -11.18164,-3.20898 -1.27502,0.27443 -4.66592,1.80322 -7.53515,3.39648 -2.86923,1.59322 -7.11888,3.59506 -9.44336,4.44727 l -4.22656,1.54882 -1.19727,-1.31445 c -0.072,0.0923 -0.14898,0.18702 -0.24805,0.29492 -0.99233,1.08085 -0.7165,1.00123 -1.71093,0.94727 -0.20142,1.7474 -1.81453,3.97542 -3.53321,4.37109 -2.12836,0.49002 -3.76027,3.10825 -3.77539,6.06055 -0.0227,4.03616 -2.24426,4.7491 -8.6289,2.76953 -1.20564,-0.37387 -2.59759,-0.67969 -3.0918,-0.67969 -1.36116,0 -5.11842,8.03337 -4.63672,9.91407 0.3974,1.55161 0.19866,1.60874 -5.56836,1.58984 -6.11255,-0.0205 -8.3074,0.8096 -7.11719,2.69336 0.34426,0.54486 0.71619,3.19567 0.82618,5.89062 0.16652,4.09622 -0.0457,5.11705 -1.29688,6.22657 -0.82314,0.72997 -1.49609,1.77677 -1.49609,2.32421 0,1.43154 -0.86619,1.16454 -3.02344,-0.92773 -1.7245,-1.67255 -16.53179,-6.9668 -19.48438,-6.9668 -0.59901,0 -2.10044,-0.83282 -3.33593,-1.85156 -2.75639,-2.27274 -6.27787,-2.44503 -7.59961,-0.37109 -1.20061,1.8839 -1.44941,1.86404 -4.81055,-0.3711 -3.12694,-2.07934 -6.34387,-2.36811 -8.83789,-0.79492 -0.64788,0.4087 -2.35844,1.11867 -4.27734,1.8086 -0.11737,0.54791 -0.30548,1.07599 -0.55665,1.58203 3.2667,-0.94411 3.25336,-0.76492 0.89063,1.13672 l -2.26758,1.82617 2.26758,1.85547 c 1.33511,1.09258 2.95154,1.74713 3.92969,1.59179 2.0245,-0.32197 7.23395,4.43627 5.45703,4.98438 -6.01216,1.85446 -10.28159,0.41741 -9.88086,-3.32617 0.24169,-2.25774 0.17254,-2.31905 -2.27344,-1.95508 -1.38833,0.20644 -3.1464,0.0572 -3.90429,-0.33203 -1.09388,-0.56123 -1.46369,-0.38916 -1.78907,0.83008 -0.033,0.12328 -0.0929,0.23242 -0.14258,0.34765 -0.0291,0.11256 -0.0336,0.12317 -0.0664,0.25781 -0.028,0.0183 -0.0542,0.0398 -0.082,0.0586 -0.30652,0.51084 -0.75261,0.87304 -1.16407,0.87304 -0.0455,0 -0.11526,0.0305 -0.16796,0.0391 -0.12237,0.0711 -0.24512,0.142 -0.375,0.19922 -0.0948,0.0417 -0.21572,0.0581 -0.34571,0.0625 -0.56194,0.28259 -1.2118,0.73049 -1.7539,1.26171 -1.29602,1.26996 -1.91821,1.42027 -3.31446,0.79688 -1.29549,-0.57846 -2.11245,-0.4976 -3.31836,0.33008 -0.48631,0.33379 -0.85159,0.68062 -1.10742,1.02344 -0.005,0.5098 -0.0771,1.01615 -0.24023,1.51562 -0.0135,0.0412 -0.0309,0.0802 -0.0449,0.12109 0.20304,0.40112 0.62966,0.73827 1.31445,0.95118 0.88897,0.27651 1.30313,0.82597 0.99219,1.31835 -0.29303,0.46458 -0.47498,1.8578 -0.4043,3.09571 0.09,1.57557 -0.54612,2.97261 -2.11523,4.6582 -1.2333,1.32431 -2.33158,2.39403 -2.44141,2.37891 -0.10983,-0.0163 -1.13574,-0.52683 -2.2793,-1.13477 -1.78744,-0.9502 -2.32561,-1.8231 -1.82031,-3.09961 -0.0615,0.0319 -0.11959,0.0637 -0.17969,0.0957 -0.25313,0.23386 -0.52013,0.46671 -0.76367,0.70312 -0.39026,0.37887 -1.72894,0.68483 -2.0918,0.62695 -0.28146,0.10909 -0.56863,0.20688 -0.85547,0.30469 3.30243,1.28168 6.96282,3.34938 8.07227,4.8418 0.66347,0.8925 1.96143,1.39453 3.60156,1.39453 1.41036,0 3.21164,0.39797 4.00391,0.88281 1.14357,0.69982 1.71067,0.6613 2.75195,-0.18555 0.72142,-0.58596 1.96231,-0.95807 2.75781,-0.82617 0.82018,0.13618 2.22718,-0.58649 3.25,-1.66797 0.99204,-1.04893 2.38131,-1.90625 3.08594,-1.90625 1.13341,0 1.22488,0.64314 0.79883,5.58204 -0.57739,6.69339 -0.33967,6.88685 6.38281,5.19921 3.22638,-0.80995 4.97339,-0.94568 5.50196,-0.42773 0.42595,0.41722 1.64273,0.76393 2.70312,0.77148 1.06039,0.006 2.43874,0.33754 3.0625,0.73829 2.56087,1.64526 3.40234,0.54402 3.40234,-4.45508 0,-4.52618 -0.12102,-4.8528 -2.12695,-5.79492 -1.87269,-0.87954 -2.06199,-1.27288 -1.60351,-3.31836 0.79475,-3.54581 1.96794,-4.9253 4.86328,-5.71485 3.38479,-0.92266 5.08487,-0.91775 5.67187,0.0117 0.83139,1.31822 5.35301,0.82903 6.79688,-0.73437 1.07592,-1.16482 1.95136,-1.37966 4.1875,-1.0293 2.19724,0.34431 3.56487,0.0277 6.1289,-1.41797 1.81507,-1.02338 4.48988,-2.09803 5.94532,-2.38867 3.38022,-0.67525 4.53711,-1.61055 4.5371,-3.66797 0,-0.90569 0.65718,-2.22863 1.46094,-2.94141 1.23627,-1.09632 1.4412,-2.19832 1.32422,-7.15234 -0.076,-3.22095 -0.41358,-5.85689 -0.75,-5.85742 -0.33641,-6.1e-4 -0.37791,-0.36909 -0.0977,-0.81836 0.33014,-0.52165 2.72263,-0.72407 6.66016,-0.55664 l 6.14649,0.26172 0.0508,-3.33399 c 0.0287,-1.83371 0.65128,-4.45063 1.38281,-5.8164 1.14584,-2.13918 1.6094,-2.41842 3.34961,-2.00782 1.11103,0.26215 3.59131,0.66915 5.50976,0.90235 3.06014,0.37205 3.63902,0.21021 4.72461,-1.3086 0.68058,-0.95213 1.23829,-2.63007 1.23828,-3.72851 0,-3.10254 0.76154,-4.33985 2.67383,-4.33985 1.09017,0 2.37136,-0.84422 3.37305,-2.22265 0.8883,-1.22245 2.16585,-2.22266 2.83789,-2.22266 1.36573,0 4.6823,-1.44132 15.51953,-6.74219 5.52042,-2.7002 7.72379,-3.44147 8.69531,-2.92382 0.71566,0.38127 2.52375,0.88436 4.01954,1.11718 1.86444,0.29016 2.97245,0.96731 3.52343,2.15235 0.72794,1.56552 1.4603,1.77693 7.75,2.24219 7.1791,0.53044 8.32307,0.23391 9.8418,-2.54688 0.45951,-0.8414 0.28729,-2.27145 -0.51367,-4.26953 -1.15378,-2.87826 -1.13494,-3.11502 0.46289,-5.64844 0.91733,-1.45447 1.97632,-2.64453 2.35351,-2.64453 0.37731,0 3.32732,0.70364 6.55469,1.5625 5.89323,1.56828 8.51367,3.04484 8.51367,4.79688 0,1.5085 3.5817,3.84973 6.67188,4.36132 2.04412,0.33838 3.87668,0.0391 6.50391,-1.06445 2.55596,-1.07308 4.48017,-1.40121 6.39257,-1.08789 4.41207,0.72272 7.87979,1.90787 10.15235,3.4707 1.74096,1.19732 3.03311,1.40482 7.18164,1.15235 6.54107,-0.39837 12.97285,-3.36433 17.53515,-8.08203 l 3.40235,-3.51758 7.63476,0.27734 7.63477,0.27734 2.86719,-2.87695 c 2.57676,-2.58569 2.8278,-3.17595 2.46875,-5.79883 -0.25357,-1.85246 0.11172,-4.37408 1.00195,-6.90039 1.82502,-5.17901 1.80736,-7.7108 -0.0762,-9.55469 -1.71262,-1.6776 -1.34754,-2.93428 1.64843,-5.67773 4.8824,-4.46997 14.52137,-6.08816 19.29102,-3.23828 2.7182,1.62414 7.27031,6.29669 12.17383,12.49609 1.83469,2.31957 3.79122,4.4702 4.34961,4.78125 0.55839,0.31125 2.53737,0.1689 4.39648,-0.31836 5.22161,-1.36853 10.96374,0.20151 13.25391,3.625 1.59246,2.3805 1.97264,2.56301 4.50976,2.16797 2.78839,-0.43419 4.68112,-2.07397 9.44922,-8.18554 1.78957,-2.2938 2.32986,-2.59479 3.27735,-1.82422 0.69985,0.56927 1.01294,1.73785 0.8164,3.05078 -0.17529,1.17056 0.13567,3.84586 0.69141,5.94531 0.55574,2.09945 1.00975,5.74112 1.00977,8.0918 -10e-6,4.1684 -0.0638,4.29987 -2.59571,5.33593 -2.49452,1.02135 -4.96484,4.3263 -4.96484,6.64258 0,0.60023 0.81226,2.03758 1.80469,3.19336 2.32467,2.70724 3.75526,7.54635 2.625,8.88086 -1.13462,1.33969 -0.24174,3.20899 1.5332,3.20899 1.04897,0 1.84725,-0.95778 2.76953,-3.32422 1.09107,-2.79961 1.55128,-3.25977 2.92578,-2.92188 5.89947,1.45093 12.19671,-6.92289 13.40235,-17.82422 0.3604,-3.2646 1.13003,-8.10329 1.70898,-10.75195 0.74079,-3.39764 0.96707,-8.46806 0.76562,-17.2168 l -0.28515,-12.40039 -4.10156,-8.34375 c -2.25642,-4.58951 -4.2852,-9.60188 -4.50782,-11.13867 l -0.40429,-2.79492 2.3125,1.3125 c 1.27211,0.72181 2.83661,2.14794 3.47656,3.16601 0.63983,1.01874 2.40186,3.6846 3.91601,5.92579 1.51412,2.24118 3.1768,5.04039 3.69532,6.2207 0.51851,1.18035 1.63488,3.01533 2.47851,4.07617 2.32849,2.92796 7.46875,11.03815 7.46875,11.7832 0,0.36186 0.65932,1.24274 1.46485,1.95704 2.06626,1.83239 3.31371,0.79154 2.72656,-2.2754 -0.54595,-2.85114 1.00613,-4.11343 3.0332,-2.46484 0.84507,0.68731 1.38299,0.71942 1.99414,0.1211 1.05222,-1.03106 -1.13896,-4.59961 -2.82422,-4.59961 -2.7115,0 -7.40633,-4.08818 -9.16211,-7.97852 -2.82844,-6.26729 -2.39234,-7.47556 2.58008,-7.16602 1.35149,0.0841 2.45703,-0.0843 2.45703,-0.375 0,-0.29072 -1.61657,-1.65985 -3.59179,-3.04296 -5.34883,-3.74544 -16.32549,-14.05183 -17.27539,-16.22071 -1.09059,-2.48976 -8.50054,-10.41015 -9.73828,-10.41015 -0.5311,0 -1.38488,0.49513 -1.89844,1.10156 -0.75704,0.89389 -0.69891,1.19025 0.30664,1.56836 0.68217,0.25651 1.60962,1.14389 2.06054,1.9707 0.64959,1.18938 0.5669,1.64248 -0.39843,2.17188 -1.60479,0.87998 -1.54161,2.01063 0.21875,3.88086 0.79181,0.84124 1.98425,2.86418 2.65039,4.49414 l 1.21289,2.96289 -1.5,-1.85157 c -0.82496,-1.01873 -1.51002,-2.20524 -1.51758,-2.63671 -0.0377,-1.75741 -2.13832,-3.36356 -6.23242,-4.76758 -4.14822,-1.42273 -4.43444,-1.43117 -7.0625,-0.20313 -2.49536,1.1661 -2.70533,1.49637 -2.33984,3.70313 0.29663,1.79501 0.11945,2.42187 -0.68555,2.42187 -0.59762,0 -1.08594,0.50011 -1.08594,1.11133 0,0.61123 -0.36039,1.11133 -0.80078,1.11133 -0.44032,0 -0.58935,-0.33691 -0.33008,-0.74805 0.72216,-1.14497 -0.34979,-3.69726 -1.55273,-3.69726 -0.58783,0 -1.28099,0.83175 -1.54102,1.84765 -0.53318,2.08173 -1.82422,1.79116 -1.82422,-0.41015 0,-1.72925 -0.0771,-1.73543 -3.54297,-0.31641 -1.50591,0.61644 -2.91145,0.94962 -3.125,0.74023 -0.21365,-0.20934 0.69605,-3.79877 2.02149,-7.9746 1.32548,-4.1765 2.40209,-8.93973 2.39453,-10.58594 -0.008,-1.64621 0.45906,-4.81479 1.03906,-7.03906 0.58001,-2.22494 1.06692,-5.04513 1.08203,-6.26758 0.0508,-4.15106 1.34399,-9.81308 2.70703,-11.85157 1.47005,-2.19851 6.10327,-6.44184 7.68946,-7.04101 0.53934,-0.20376 2.87487,-1.97319 5.18945,-3.9336 3.45895,-2.92904 4.12959,-3.87385 3.76563,-5.29492 -0.37002,-1.44476 0.0925,-2.03981 2.80859,-3.62695 l 3.25,-1.90039 0.80859,1.9375 0.80664,1.9375 2.77344,-2.38477 c 1.52451,-1.31164 2.99186,-3.11411 3.26172,-4.00586 0.26997,-0.89174 1.50625,-2.88692 2.74805,-4.43554 2.72863,-3.40284 2.38577,-5.27813 -0.87891,-4.8086 -2.78887,0.40109 -2.91574,0.0855 -3.8418,-9.49218 -0.78697,-8.13853 -0.50609,-9.57425 2.5625,-13.14649 L 644.05664,346 l 1.67188,2.30078 c 0.92008,1.26622 2.002,2.10297 2.40429,1.85938 0.40226,-0.24362 1.19704,-0.0639 1.76563,0.39843 1.71458,1.39445 2.23711,-0.49171 2.38867,-8.63086 0.12257,-6.57855 -0.0449,-7.71004 -1.29688,-8.82031 -0.78995,-0.7005 -1.43164,-1.97052 -1.43164,-2.82422 0.004,-1.29734 0.19871,-1.19128 1.17969,0.65235 0.64554,1.21316 1.41494,2.38069 1.70899,2.59375 0.29427,0.21305 1.47835,1.51262 2.63281,2.88867 1.81051,2.15793 2.0329,2.92933 1.62304,5.60742 -0.29017,1.9002 0.16277,6.80198 1.16797,12.63477 1.63896,9.51087 1.6752,13.43784 0.16407,17.9414 -0.66921,1.99447 -0.56304,2.67929 0.65234,4.19336 0.79865,0.99488 1.45117,2.51472 1.45117,3.37891 0,0.86419 0.9995,3.51214 2.22071,5.88281 2.15348,4.18159 6.41797,8.3865 14.03515,13.8418 4.20027,3.0082 17.01172,13.03357 17.01172,13.3125 0,0.31946 -0.0703,0.62101 -0.18555,0.89453 0.1387,0.0867 0.27863,0.17803 0.41797,0.26953 0.58009,-0.63068 1.17831,-1.29159 1.82617,-2.05078 -0.0599,-1.68103 -0.0562,-3.45897 0.0352,-4.98047 0.31567,-5.25672 0.13976,-6.27814 -1.74414,-10.14063 -2.03611,-4.17386 -2.05714,-4.35266 -0.77539,-6.26953 1.2864,-1.92396 1.27098,-2.01986 -0.5918,-3.93359 -3.27424,-3.36374 -3.80238,-5.78911 -2,-9.17773 1.892,-3.55696 1.43501,-5.36577 -1.76172,-6.98438 -4.15158,-2.10212 -5.59934,-5.38526 -3.0039,-6.80859 2.02567,-1.11082 0.15883,-4.33602 -2.96094,-5.11719 -1.6393,-0.41048 -3.10958,-1.55705 -4.31445,-3.36328 -2.07829,-3.1154 -3.91118,-3.48198 -5.52149,-1.10547 l -1.10742,1.63281 -1.38281,-2.06836 c -0.76067,-1.13764 -1.62764,-3.45575 -1.92774,-5.15234 -0.29986,-1.69659 -0.99147,-4.15117 -1.53515,-5.45508 -0.87183,-2.09069 -0.82602,-2.54819 0.38672,-3.86133 0.89949,-0.97422 1.21982,-2.09539 0.92578,-3.24218 -0.36858,-1.43935 -0.16159,-1.74395 1.14843,-1.69727 1.46162,0.0521 1.60289,-0.35845 1.68164,-4.86719 0.0971,-5.52684 1.45239,-7.79347 4.89063,-8.18359 2.27486,-0.25812 2.32323,-0.81428 0.83398,-9.85938 -0.4696,-2.85241 -0.96833,-9.85378 -1.10742,-15.55859 -0.23909,-9.79889 -0.16048,-10.49594 1.44336,-12.5957 2.40922,-3.15414 2.76109,-4.47732 1.60156,-6.03125 -0.84098,-1.12701 -2.24262,-1.39373 -8.16015,-1.55274 -6.52483,-0.17533 -7.38499,-0.0334 -9.89649,1.63672 -3.11803,2.07344 -3.72943,1.72981 -0.85937,-0.48242 1.48996,-1.14846 1.89062,-2.12648 1.89062,-4.625 0,-1.74331 -0.3747,-4.2221 -0.83203,-5.50781 -0.7886,-2.21669 -1.49852,-2.6307 -5.5332,-3.22657 -0.79729,-0.11773 -1.61824,-0.71494 -1.82422,-1.32617 -0.29775,-0.88326 -0.15342,-0.93284 0.70117,-0.24219 0.67646,0.54664 2.04544,0.67517 3.68946,0.34571 2.13346,-0.42758 2.69854,-0.93841 3.08398,-2.78516 0.66391,-3.18089 1.3159,-3.98633 3.22656,-3.98633 0.91658,0 3.43058,-1.16423 5.58789,-2.58789 2.97203,-1.96127 4.10818,-3.24484 4.6875,-5.30078 0.89874,-3.18976 0.56945,-3.96484 -1.6875,-3.96484 -0.91498,0 -2.0994,-0.68451 -2.63281,-1.52149 -0.71539,-1.12241 -1.4059,-1.38547 -2.63281,-1.0039 -1.4623,0.45481 -1.54143,0.37357 -0.6543,-0.67383 0.84612,-0.9992 0.8049,-1.79443 -0.25586,-4.92383 -0.69558,-2.05219 -1.66404,-3.73 -2.15039,-3.72851 z m -395.0293,79.48632 c -0.45682,0.003 -0.86203,0.0312 -1.1914,0.0918 -3.11802,0.5732 -5.23598,2.855 -6.41406,6.91016 -0.71745,2.46955 -1.35254,3.24406 -2.96485,3.61914 -2.8956,0.67361 -4.67674,2.38358 -6.28125,6.02539 -0.76417,1.73448 -2.16598,3.50922 -3.11523,3.94531 -1.84072,0.84562 -5.38236,5.37113 -6.21485,7.94141 -0.27657,0.8539 -1.15031,1.75455 -1.93945,2 -1.45827,0.45354 -1.76839,1.08369 -2.65039,5.37695 -0.27276,1.32772 -1.19725,2.78276 -2.05469,3.23242 -0.85744,0.44967 -5.78101,0.99708 -10.9414,1.21484 l -9.38282,0.39649 0.33594,3.16601 c 0.18519,1.74155 0.56465,3.52543 0.8418,3.96485 0.27712,0.43944 0.14351,0.79883 -0.29688,0.79883 -0.44039,0 -0.80078,-0.32684 -0.80078,-0.72657 0,-1.25025 -2.89034,-1.5518 -6.16211,-0.77734 0.0605,0.35852 -0.17582,0.96535 -0.48047,1.625 2.46522,-0.82229 3.98499,-0.47796 6.20703,1 1.5248,1.01397 3.05107,1.84375 3.39258,1.84375 0.34154,0 0.0209,-2.12157 -0.71289,-4.71484 l -1.33398,-4.71485 8.05078,-0.51367 c 12.82709,-0.81694 13.11893,-0.92436 14.64062,-5.39258 0.71352,-2.09513 2.15971,-4.65486 3.21289,-5.6875 1.05381,-1.03264 1.91602,-2.39173 1.91602,-3.02148 0,-0.62975 0.26758,-1.14649 0.59375,-1.14649 0.32619,0 1.18431,-0.98003 1.90625,-2.17773 0.72198,-1.19766 2.01866,-2.39725 2.88281,-2.66602 0.95315,-0.29643 2.28518,-2.06747 3.38477,-4.5039 1.27343,-2.8216 2.43174,-4.25639 3.89453,-4.82227 3.97378,-1.53721 4.35677,-1.91315 5.51367,-5.42773 1.48733,-4.51838 3.90193,-5.915 9.03906,-5.22266 3.79758,0.51181 7.44058,3.21723 6.44922,4.78906 -0.28525,0.45229 0.49839,2.39353 1.74219,4.31446 2.51979,3.89157 3.89403,8.11196 3.91406,12.01367 0.007,1.4262 0.45468,4.25944 0.99219,6.29687 1.00145,3.79601 0.61526,8.71963 -0.79102,10.09766 -0.42639,0.41845 -1.99817,1.03115 -3.49218,1.36133 -4.66827,1.03172 -7.09428,-0.80373 -11.23633,-8.49609 -1.97459,-3.66739 -3.60169,-7.33347 -3.61719,-8.14844 -0.0153,-0.81497 -0.35003,-1.98007 -0.74219,-2.58789 -1.40009,-2.17009 -2.65713,0.46307 -2.42382,5.07617 0.20405,4.03464 0.0411,4.50238 -2.73047,7.78906 -3.77426,4.47566 -4.83619,7.70265 -3.64649,11.09375 0.48908,1.39405 1.34653,3.07386 1.9043,3.73242 1.20327,1.42074 3.07146,1.58142 3.1582,0.27149 0.0337,-0.50936 0.11923,-2.26068 0.18946,-3.89063 0.10442,-2.42369 0.42543,-3.00511 1.75976,-3.1914 1.30697,-0.1825 1.73796,0.25968 2.17188,2.22265 1.32909,6.0128 6.01872,8.59209 7.26562,3.9961 0.75624,-2.78741 1.78804,-3.37352 5.94141,-3.375 5.29425,-0.002 6.82705,0.63599 7.32031,3.05273 0.24042,1.17798 0.78698,2.35556 1.2168,2.61523 1.06913,0.64749 5.07226,-3.87474 5.07226,-5.73046 0,-0.82487 1.39378,-2.80038 3.09766,-4.38868 1.88005,-1.75252 2.87902,-3.23558 2.54101,-3.77148 -1.05403,-1.6722 1.42706,-0.25992 2.86915,1.63281 0.97924,1.28522 1.26353,2.46325 0.91796,3.8125 -0.4366,1.70465 -0.85109,1.93384 -3.26171,1.79883 -2.61233,-0.14632 -2.77401,-0.023 -3.00196,2.30469 -0.48018,4.90384 3.56016,7.70384 6.875,4.76367 1.22159,-1.08352 3.06512,-1.3093 11.21289,-1.37695 5.3624,-0.0445 9.75,0.13116 9.75,0.39062 0,0.25944 -0.56577,1.26111 -1.25586,2.22656 -1.17379,1.64221 -1.16765,1.81649 0.0664,2.70118 0.78491,0.56248 2.35837,0.77983 3.88477,0.53711 1.71958,-0.27345 3.20922,0.005 4.51171,0.84179 1.09259,0.7015 3.00234,1.14736 4.36133,1.01953 2.31183,-0.21748 2.4086,-0.12048 2.18164,2.18164 -0.27295,2.76866 0.76469,3.09599 3.66016,1.1543 2.42879,-1.62873 2.9782,-2.45687 2.99219,-4.51172 0.0296,-4.32405 4.8079,-1.84263 10.38867,5.39453 1.88536,2.44492 4.05166,5.86194 4.81445,7.59375 1.61313,3.66233 2.30124,3.86542 4.08008,1.20508 1.0384,-1.55297 1.13176,-2.30586 0.46484,-3.74023 -0.45915,-0.98744 -0.83593,-2.5468 -0.83593,-3.46485 0,-0.91804 -0.33772,-2.00033 -0.75196,-2.40625 -0.50015,-0.4901 -0.24638,-1.71231 0.75586,-3.63867 0.83008,-1.59543 1.50977,-3.78699 1.50977,-4.86914 0,-1.46257 0.74802,-2.45153 2.91601,-3.85742 1.60409,-1.04022 3.90069,-3.41955 5.10352,-5.28516 2.39187,-3.70986 3.06137,-3.94675 6.38281,-2.26367 2.85918,1.44877 2.96506,4.28278 0.29297,7.80274 -1.6048,2.11395 -1.85961,3.07119 -1.48437,5.58007 0.24912,1.6658 0.0637,3.99877 -0.41211,5.18555 -2.40226,5.99179 -3.62911,11.57572 -2.93555,13.36328 0.94778,2.44279 -0.44432,5.01946 -4.875,9.02149 -3.60464,3.25591 -4.83627,3.63933 -7.38867,2.30078 -1.13648,-0.59611 -1.77019,-0.57787 -2.40625,0.0605 -0.65287,0.65779 -0.24259,1.38517 1.68164,2.97461 1.24339,1.02711 2.86219,2.0015 3.88281,2.37891 0.60323,-0.18292 1.18858,-0.35722 1.90234,-0.56445 1.26369,-0.3568 2.54665,-0.50511 3.83594,-0.53516 4.24954,-2.31637 8.625,-7.11858 8.625,-10.59766 0,-1.72811 0.46075,-2.72812 1.51172,-3.27929 2.0225,-1.06065 4.51231,0.25307 4.61133,2.43359 0.21437,4.72199 0.37577,5.3457 1.39258,5.3457 0.78414,0 1.16933,-1.15198 1.37304,-4.10156 0.33309,-4.82521 -1.03311,-6.58865 -5.67773,-7.32422 -3.53352,-0.55956 -3.89503,-2.11207 -1.86523,-8.03515 0.91655,-2.67663 1.32701,-5.42012 1.10742,-7.41797 -0.3286,-2.98809 -0.14893,-3.35309 3.13476,-6.34961 3.69831,-3.37485 4.20073,-3.08526 2.31641,1.33398 -0.64203,1.50588 -0.9762,3.32464 -0.74414,4.04102 0.53268,1.6446 6.48544,5.52087 7.26758,4.73242 0.91203,-0.91938 -1.35873,-5.40234 -2.73633,-5.40234 -1.84437,0 -0.90453,-1.71684 1.01562,-1.85547 2.36546,-0.17078 2.87681,-0.95371 1.76563,-2.69727 -1.41661,-2.22275 -0.5499,-2.47969 2.03711,-0.60547 2.93189,2.12412 3.3636,3.94702 1.48828,6.28321 -1.02138,1.27236 -1.2773,2.17705 -0.78906,2.78711 0.3976,0.49678 0.92753,1.96373 1.17773,3.25976 0.39216,2.03089 0.0952,2.667 -2.16016,4.60742 -1.43928,1.2383 -2.61718,2.95372 -2.61718,3.8125 0,1.78184 3.72505,5.7322 5.49414,5.87891 0.71034,-0.64531 1.46812,-1.0303 2.26172,-0.9668 -0.53373,-0.73058 -1.15875,-1.17656 -1.75977,-1.08008 -1.54636,0.24991 -4.48437,-2.168 -4.48437,-3.68945 0,-0.59131 0.8766,-1.74896 1.94726,-2.57422 2.68864,-2.07242 3.57766,-4.67041 2.5957,-7.58593 -0.60015,-1.78189 -0.54259,-2.95426 0.23633,-4.76954 l 1.03321,-2.40625 1.95507,2.2793 c 1.25379,1.4601 2.38252,2.11784 3.14258,1.83203 1.68699,-0.63435 1.48415,-1.80032 -0.96094,-5.53125 -1.7876,-2.73044 -2.08991,-3.86157 -1.8125,-6.79492 l 0.33204,-3.51953 6.1621,-0.0742 c 7.20877,-0.0864 10.06073,-0.74109 9.65235,-2.21484 -1.11171,-4.01187 -0.50471,-6.03445 2.52734,-8.41602 1.67981,-1.31945 5.70631,-3.66656 8.94922,-5.21484 5.16291,-2.46498 6.11554,-2.7004 7.64844,-1.89649 1.44574,0.75819 2.17044,0.70585 4.16015,-0.30273 1.32556,-0.6717 2.59348,-1.69121 2.81836,-2.26563 0.22492,-0.57441 1.05832,-1.24741 1.85157,-1.49414 0.91328,-0.28403 1.44336,-1.12974 1.44336,-2.30468 0,-2.52532 3.62762,-8.41829 5.17382,-8.4043 1.88848,0.0171 3.48395,1.17499 2.4668,1.79101 -1.7269,1.04585 -0.86193,2.64258 1.43164,2.64258 2.01612,0 2.26758,0.24696 2.26758,2.22266 0,2.59848 0.91755,2.788 3.57422,0.74023 2.9421,-2.26775 6.55539,-1.93551 9.27344,0.85157 1.25113,1.2829 2.27343,2.92966 2.27343,3.66015 0,0.73049 0.34004,1.53528 0.75586,1.78711 1.67917,1.01694 0.48207,3.80229 -5.18945,12.07227 -9.22806,13.45596 -9.62366,14.8215 -2.97656,10.26172 l 3.95312,-2.71289 1.40821,3.52539 c 0.46818,1.17051 1.05299,2.36683 1.58007,3.30273 0.48493,-0.27058 0.98171,-0.44291 1.46875,-0.48047 -1.77898,-3.70369 -2.48898,-5.79363 -2.73242,-7.70312 -0.38003,-2.98149 -0.29388,-3.18952 1.16211,-2.81641 0.86464,0.22156 2.17766,0.0846 2.91992,-0.30469 1.00196,-0.52546 1.53339,-0.38837 2.0586,0.53125 0.64686,1.13271 0.87962,1.10453 2.73828,-0.32812 2.3054,-1.77711 8.62963,-2.99989 9.38281,-1.81446 0.68818,1.08315 2.91586,1.26737 7.4375,0.61329 5.00481,-0.72401 5.94577,-1.75001 4.7793,-5.21289 -1.08091,-3.20932 -0.50594,-4.26775 1.98828,-3.6543 1.05109,0.2585 3.22663,0.0452 4.83398,-0.47461 2.53841,-0.82093 3.17977,-0.77972 4.88086,0.3125 1.07717,0.69161 2.26324,2.04022 2.63477,2.99805 0.37164,0.95782 1.0038,1.9418 1.40625,2.18554 0.40214,0.24373 0.5658,1.06974 0.36133,1.83594 -0.4427,1.65886 2.09256,4.25733 5.59179,5.73047 4.51144,1.89918 4.97629,1.55894 4.45118,-3.27149 l -0.46876,-4.29882 2.63282,0.30273 c 2.21095,0.25293 2.94978,-0.0693 4.60937,-2.00195 1.08699,-1.26585 2.4412,-2.30078 3.00781,-2.30078 2.04692,0 4.94058,-1.74775 4.54883,-2.74805 -0.23399,-0.59756 0.36501,-1.28681 1.48243,-1.70313 2.41158,-0.8987 2.3666,-1.27946 -0.50977,-4.1875 -1.96944,-1.99113 -2.22427,-2.6067 -1.45117,-3.51953 0.49806,-0.58771 0.71326,-1.6421 0.50781,-2.39257 -0.45101,0.16126 -0.93888,0.27477 -1.46289,0.33789 -0.10533,0.74734 -0.35132,1.60661 -0.6875,2.25195 -0.81449,1.56347 -0.6533,1.96694 1.55273,3.89844 l 2.46094,2.15429 -1.89844,0.70899 c -1.23741,0.46103 -1.74837,1.09104 -1.46679,1.81054 0.3002,0.76667 -0.22525,1.25274 -1.7168,1.5918 -1.18137,0.26854 -3.44934,1.48574 -5.04102,2.70508 -2.21147,1.69416 -3.39892,2.11948 -5.03515,1.79883 -2.64042,-0.51746 -3.01864,0.28656 -2.30469,4.89648 0.59943,3.87049 0.3134,4.07676 -3.1875,2.30274 -3.08757,-1.56458 -4.56128,-3.03938 -3.97266,-3.97266 0.61437,-0.97411 -1.75611,-5.10873 -4.15429,-7.24805 -2.49056,-2.2217 -4.99829,-2.79448 -7.19531,-1.64258 -0.99001,0.51912 -2.78074,0.74201 -4.01563,0.5 -3.42501,-0.67062 -5.10645,1.50081 -3.91016,5.05274 0.49807,1.47906 0.78809,2.78601 0.64258,2.90234 -0.56179,0.44945 -7.44489,1.91016 -8.99805,1.91016 -1.19677,0 -1.50919,-0.32135 -1.16601,-1.19727 0.41212,-1.05239 -0.0605,-1.13563 -3.88867,-0.68164 -2.39668,0.28423 -5.18061,1.03568 -6.18555,1.66797 -1.67973,1.05685 -1.90728,1.03877 -2.83398,-0.20312 -0.55446,-0.74302 -1.00977,-2.28707 -1.00977,-3.43164 0,-2.60909 -1.65516,-2.73544 -3.31445,-0.25391 -1.35579,2.02768 -1.57264,3.35938 -0.54688,3.35937 0.37077,0 0.88765,-0.83284 1.14844,-1.85156 0.64894,-2.53374 1.95703,-2.33924 1.95703,0.29102 0,2.42882 -1.63925,3.42421 -3.78516,2.29883 -2.03911,-1.06971 -2.14473,-0.99605 -2.6914,1.85937 -0.35116,1.83418 -1.40806,3.30172 -3.59766,5 -3.52509,2.73413 -3.61679,2.92669 3.78711,-7.86914 3.2273,-4.70579 5.53995,-8.86145 5.56641,-10.00195 0.0875,-3.72719 -0.98899,-6.41096 -3.68164,-9.17383 -3.04532,-3.12476 -6.09428,-3.62759 -10,-1.64844 -2.11574,1.0721 -2.23047,1.05234 -2.23047,-0.37109 0,-1.51261 -0.63244,-1.79509 -3.40235,-1.52149 -1.21858,0.12044 -1.32843,-0.0362 -0.5664,-0.80468 1.34986,-1.36134 1.18788,-1.94713 -0.9082,-3.29297 -0.20169,-0.12951 -0.41641,-0.22641 -0.62891,-0.32617 -1.21276,0.11006 -2.33862,0.0729 -3.36523,-0.0937 -2.08569,1.33008 -5.49415,6.60852 -5.49415,8.75781 0,1.19339 -0.43948,1.70703 -1.46093,1.70703 -0.80368,0 -1.66052,0.61796 -1.9043,1.37109 -0.61085,1.88598 -3.92566,3.35149 -4.46484,1.97461 -0.3182,-0.81253 -0.96303,-0.85064 -3.27735,-0.19336 -1.58441,0.44999 -3.38993,1.21719 -4.01367,1.70508 -0.62377,0.4879 -2.74447,1.57474 -4.71289,2.41406 -4.62883,1.9737 -10.56774,6.81473 -10.0332,8.17969 0.22318,0.56996 0.0487,1.46015 -0.38867,1.97656 -0.57086,0.67417 -0.46782,1.25986 0.36523,2.07618 0.6381,0.62529 1.16016,1.31609 1.16016,1.53515 0,0.21907 -3.65864,0.49177 -8.12891,0.60742 l -8.12695,0.21094 -0.49805,4.44531 c -0.41303,3.67922 -0.26739,4.7 0.84961,5.92578 1.21221,1.33091 3.05078,4.3254 3.05078,4.96876 0,0.137 -2.09636,-1.67338 -4.6582,-4.0254 -2.9647,-2.72186 -5.30833,-4.27734 -6.44922,-4.27734 -2.34943,0 -3.18039,2.12634 -1.34571,3.44141 1.28588,0.92134 1.20033,1.0039 -1.03515,1.0039 -3.54524,0 -3.98879,1.95359 -0.99219,4.36719 3.30202,2.65967 3.02092,3.59495 -0.32812,1.0918 -2.9195,-2.18208 -2.95761,-2.51294 -1.00586,-8.83594 1.05978,-3.43337 0.44377,-6.99414 -1.21094,-6.99414 -0.79998,0 -1.12109,0.83489 -1.12109,2.92773 0,2.31703 -0.40873,3.20869 -1.96094,4.26172 -4.69535,3.18531 -5.03375,3.7893 -4.49414,8.02149 0.37988,2.97924 0.19382,4.52858 -0.75586,6.32812 -0.69169,1.31079 -1.30716,3.90301 -1.36914,5.75977 l -0.11328,3.375 3.40234,0.57617 c 3.8739,0.65586 6.07993,2.75577 5.98242,5.69141 l -0.0644,1.95507 -0.63867,-2.08593 c -0.9391,-3.06569 -2.1814,-4.21094 -4.5625,-4.21094 -2.75577,0 -4.49805,1.76552 -4.49805,4.55859 0,2.88284 -4.61074,8.47769 -8.19531,9.94532 -2.05097,0.83915 -3.20509,0.90556 -5.10547,0.29101 -2.49199,-0.80591 -5.01184,-2.94141 -3.4707,-2.94141 0.4422,0 1.01447,0.33273 1.27148,0.74024 2.52961,4.01076 15.43906,-8.55299 13.13086,-12.7793 -0.83313,-1.52545 0.8467,-9.28993 2.88281,-13.32226 0.64804,-1.28371 0.84647,-3.09059 0.54297,-4.94922 -0.36831,-2.25695 -0.13382,-3.40602 1.02344,-5.01563 3.46454,-4.81886 3.11289,-8.53202 -0.94727,-9.9707 -3.17625,-1.12547 -3.39814,-1.8191 -0.5664,-1.7793 1.58509,0.0223 2.08007,-0.32153 2.08007,-1.45117 0,-2.29563 -2.8923,-2.31888 -4.14062,-0.0332 -0.56624,1.03676 -1.29038,1.88476 -1.60938,1.88476 -0.31901,0 -2.01155,2.00039 -3.76171,4.44532 -1.75018,2.44492 -3.53601,4.44531 -3.96875,4.44531 -1.45354,0 -4.28711,3.20478 -4.28711,4.84961 0,0.89588 -0.70629,3.19184 -1.56836,5.10156 -0.98619,2.18463 -1.31391,3.8005 -0.88672,4.35547 1.07688,1.399 2.57041,7.1364 2.0664,7.93555 -0.76704,1.21617 -1.74922,0.81505 -2.30664,-0.94141 -1.12366,-3.54069 -8.11173,-12.4115 -11.36718,-14.42969 -2.69663,-1.67174 -3.42316,-2.60445 -3.91016,-5.01758 -0.63082,-3.12578 -2.08253,-3.85555 -3.44922,-1.73242 -0.58446,0.90795 -0.40847,2.34577 0.66602,5.44336 l 1.46093,4.20899 -2.11523,1.78125 c -2.35953,1.98881 -4.30217,2.46165 -2.79297,0.67968 1.5826,-1.8686 0.33687,-3.34375 -2.82422,-3.34375 -1.58387,0 -3.66252,-0.53934 -4.62109,-1.19726 -1.2454,-0.85478 -2.58867,-1.06404 -4.70508,-0.73242 -3.19434,0.50053 -4.06497,-0.6965 -1.82812,-2.51563 2.6426,-2.14912 1.32185,-2.95954 -5.10352,-3.12891 -15.52947,-0.4093 -15.97821,-0.37822 -17.80078,1.20313 -2.22769,1.93285 -4.21713,0.88732 -4.55078,-2.39258 -0.22933,-2.25422 -0.15817,-2.31228 2.64648,-2.14844 l 2.88281,0.16797 0.23633,-3.24414 c 0.19798,-2.70721 -0.10617,-3.59586 -1.84179,-5.37109 -2.40252,-2.45732 -4.06641,-2.74591 -4.06641,-0.70703 0,0.78061 -1.36008,2.68203 -3.02344,4.22656 -1.66335,1.54454 -3.02344,3.42736 -3.02344,4.18359 0,0.75623 -0.58172,2.1307 -1.29296,3.05469 l -1.29493,1.67969 -1.16406,-2.28125 c -1.14284,-2.2399 -1.27683,-2.28486 -7.39844,-2.4961 l -6.23437,-0.21484 -1.30469,2.80859 c -0.71667,1.54453 -1.38824,2.93805 -1.49414,3.09766 -0.45129,0.68016 -3.22324,-3.44073 -3.68359,-5.47656 -0.95891,-4.24055 -3.46131,-5.34021 -5.97071,-2.62305 -1.02127,1.10585 -1.21731,2.09581 -0.82422,4.15235 0.71787,3.7491 -1.16993,3.06097 -2.28515,-0.83399 -1.07715,-3.762 -0.11289,-6.83819 3.4043,-10.86719 2.44949,-2.80592 2.69915,-3.50597 2.67382,-7.47265 -0.0153,-2.40714 0.11386,-3.92173 0.28711,-3.36719 1.22853,3.93252 6.44165,13.41131 8.6211,15.67578 2.08494,2.16628 3.20543,2.74219 5.33593,2.74219 6.38039,0 9.30819,-3.38023 8.60743,-9.9375 -1.0095,-9.44621 -2.82663,-17.052 -4.96094,-20.75781 -1.76531,-3.06513 -2.01559,-3.99383 -1.2207,-4.54493 1.29503,-0.89785 0.13275,-4.02539 -1.4961,-4.02539 -0.63715,0 -1.1582,-0.27112 -1.1582,-0.60156 0,-0.89267 -5.72999,-2.1679 -8.92774,-2.14844 z m 401.86329,30.30664 c -0.53744,-0.006 -1.08546,0.24728 -1.36524,0.67383 -0.61255,0.93377 -0.25323,4.63803 0.58594,6.03516 0.18357,0.30561 0.82466,0.55469 1.42383,0.55469 1.62444,0 1.51378,-6.55323 -0.1211,-7.16797 -0.16643,-0.0626 -0.34429,-0.0938 -0.52343,-0.0957 z m 0.0625,0.91407 c 0.0508,0.002 0.10306,0.0193 0.1582,0.0527 0.4159,0.25184 0.75586,1.27291 0.75586,2.26758 0,0.99467 -0.34004,1.80664 -0.75586,1.80664 -0.41594,0 -0.75586,-1.01911 -0.75586,-2.26563 0,-1.15697 0.24186,-1.87801 0.59766,-1.86132 z m -479.9336,1.90625 c -1.0714,-0.0414 -2.45168,0.5908 -3.5332,1.91992 -1.43078,1.75833 -2.17021,2.04058 -4.97266,1.89844 -4.29576,-0.2179 -7.96271,1.34356 -11.93554,5.08398 -2.17873,2.05128 -3.61253,2.87186 -4.4375,2.53711 -3.6738,-1.49066 -7.64454,-1.14453 -7.64454,0.66601 0,0.53088 1.01015,2.27496 2.2461,3.875 1.23595,1.60067 2.25781,3.27646 2.26953,3.72266 0.0116,0.4462 0.70153,1.41542 1.5332,2.15234 0.83168,0.73755 1.51172,1.72567 1.51172,2.19727 0,1.7813 -6.42539,9.21447 -7.99609,9.25 -1.88616,0.0429 -3.89184,2.08168 -7.04102,7.1543 l -2.34961,3.7832 h -4.13281 c -3.0533,0 -5.26359,0.55877 -8.46875,2.14258 -5.7445,2.83861 -6.34454,3.91834 -4.16406,7.48633 0.94385,1.54446 2.33408,4.14156 3.08789,5.77148 0.95388,2.0626 2.37898,3.50524 4.6875,4.7461 1.82431,0.97994 3.40996,1.85044 3.52539,1.93359 0.11544,0.0833 -0.66666,2.87118 -1.73828,6.19531 -1.71609,5.32328 -2.29275,6.25791 -4.84375,7.83594 -1.70218,1.05298 -3.23699,2.75003 -3.72266,4.11523 -0.72978,2.05142 -0.61529,2.52999 0.97852,4.0918 2.23535,2.19046 5.36137,3.0377 6.82226,1.84961 0.5984,-0.48658 1.77149,-0.67214 2.60742,-0.41211 0.83593,0.26014 2.18428,0.12494 2.9961,-0.30078 1.11254,-0.58345 2.24275,-0.43902 4.58789,0.58984 2.67897,1.17532 2.95085,1.49684 1.95508,2.30664 -1.87004,1.52085 -1.34084,3.40759 1.48437,5.29297 2.91984,1.9485 3.47945,3.20541 1.13867,2.55469 -0.83167,-0.23123 -2.16425,-0.60192 -2.96093,-0.82227 -2.13934,-0.59164 -2.52024,0.70456 -1.07813,3.66797 1.20728,2.48085 1.2078,2.70795 -0.0469,4.06446 -0.72986,0.79029 -1.21551,2.18924 -1.07813,3.10937 0.20748,1.38966 0.97944,1.8162 4.5586,2.51367 2.36923,0.46182 5.9666,1.65374 7.99218,2.64844 3.11927,1.53177 3.80425,2.26146 4.47266,4.77148 0.43404,1.62993 1.48235,4.96327 2.33008,7.40821 3.94953,11.39081 6.22461,18.77215 6.22461,20.1914 0,0.85308 -0.86762,2.56226 -1.92774,3.79688 l -1.92773,2.24414 2.9414,1.9082 c 4.00999,2.60039 5.33896,6.54568 3.17578,9.42969 -1.84161,2.45616 -1.90473,4.11244 -0.2246,5.93164 0.70443,0.76275 1.36868,2.85717 1.4746,4.6543 0.23143,3.90323 1.94126,7.41685 4.18165,8.59179 0.97848,0.51319 3.37342,0.69962 5.99218,0.4668 2.39874,-0.21316 4.54259,-0.22129 4.76367,0.008 0.22169,0.21725 -0.26592,1.22894 -1.08398,2.24805 -1.80687,2.25094 -1.88114,4.08003 -0.26562,6.49609 1.47692,2.20872 3.04221,2.35412 3.69336,0.34375 0.2646,-0.81887 1.14261,-1.48242 1.96289,-1.48242 0.81635,0 2.55464,-1.19202 3.86132,-2.65039 2.07304,-2.31367 2.6891,-2.59522 4.83203,-2.20117 2.91539,0.53594 3.76177,-0.40748 2.44532,-2.72656 -1.23659,-2.17837 -3.56098,-17.73217 -3.04688,-20.38672 0.21732,-1.12211 1.06351,-2.9292 1.88086,-4.01563 1.19325,-1.58611 1.38523,-2.63035 0.97656,-5.30078 l -0.50781,-3.32617 4.01367,-1.80078 c 2.52757,-1.1339 5.05492,-1.722 6.82032,-1.58594 1.68737,0.13021 3.12258,-0.18426 3.86328,-0.83398 -0.74056,-0.2525 -1.4764,-0.52981 -2.21094,-0.81641 -0.46859,0.0435 -1.05654,0.056 -1.83398,0.0606 -2.28171,0.0133 -4.82617,0.74906 -7.71094,2.22851 l -4.30664,2.20703 0.43945,3.14454 c 0.33226,2.37547 0.093,3.64684 -0.98242,5.20117 -0.95402,1.37892 -1.54932,3.88837 -1.80274,7.61328 l -0.37695,5.55664 -2.30469,0.2207 c -2.18137,0.2092 -2.35766,0.0253 -3.26171,-3.43359 -0.52575,-2.01018 -1.72521,-4.36439 -2.66602,-5.23047 -1.21701,-1.12036 -1.62023,-2.17986 -1.39648,-3.67383 0.25953,-1.73695 -0.24317,-2.56831 -2.91407,-4.80859 -1.77591,-1.48959 -3.50862,-2.70899 -3.84961,-2.70899 -0.34097,0 -0.61914,-0.44745 -0.61914,-0.99609 0,-1.97367 -2.3516,-5.55837 -4.89453,-7.45898 -1.42598,-1.06579 -3.18516,-2.91971 -3.9082,-4.11914 -0.72304,-1.19944 -2.27566,-2.57055 -3.44922,-3.04688 -1.32675,-0.53851 -2.29712,-1.60005 -2.56641,-2.80859 -0.62526,-2.80611 -2.25712,-7.99898 -3.98047,-12.66602 -1.64705,-4.46045 -1.48463,-5.50031 0.75196,-4.80469 0.079,0.0246 0.16554,0.036 0.25,0.0508 -0.14983,-0.3249 -0.3158,-0.6655 -0.51367,-1.04493 0.0928,0.14816 0.1619,0.2519 0.14062,0.13867 -0.0642,-0.34143 -0.11445,-0.56629 -0.16992,-0.83203 -0.12786,-0.21315 -0.25842,-0.41993 -0.38086,-0.63671 -0.40752,-0.43672 -0.8572,-1.033 -0.55469,-0.92774 -0.94399,-1.01259 -2.29386,-2.04748 -3.12305,-2.36133 -1.05027,-0.39787 -1.78421,-1.52835 -2.11718,-3.26758 -0.43648,-2.2799 -0.19392,-3.77673 0.54101,-3.87695 0.1696,-0.0231 0.36613,0.029 0.58594,0.16211 0.0656,0.0397 0.20853,0.0845 0.30273,0.12695 0.19797,-0.36118 0.56606,-0.69919 1.01563,-1.01367 -0.62892,-0.15097 -1.12762,-0.26023 -1.28906,-0.25976 -0.58,0.002 -1.77105,-0.69083 -2.64649,-1.53907 -0.87543,-0.84824 -3.05307,-2.52885 -4.83984,-3.73437 -3.9494,-2.66472 -4.54309,-3.94957 -2.73242,-5.91016 1.18702,-1.2853 1.22764,-1.59701 0.28125,-2.18359 -0.60723,-0.37629 -1.54175,-0.68775 -2.07617,-0.69531 -0.53443,-0.006 -1.79605,-0.54117 -2.80274,-1.1875 -1.072,-0.68814 -2.23559,-0.92654 -2.80859,-0.57618 -0.53809,0.32897 -2.16761,0.65709 -3.62305,0.72852 -1.45543,0.0715 -3.36366,0.35697 -4.23828,0.63477 -1.11102,0.35285 -2.22217,-0.0292 -3.69141,-1.26758 -1.7913,-1.50989 -1.97817,-2.0036 -1.25586,-3.32617 0.57869,-1.05952 1.33356,-1.427 2.375,-1.16016 0.83934,0.21509 2.00674,-10e-4 2.59571,-0.48047 0.82148,-0.66633 1.41136,-0.65821 2.52929,0.0234 2.82525,1.72898 5.40321,0.25511 7.43555,-4.24805 1.40735,-3.11837 1.65582,-4.36945 1.01758,-5.12305 -0.46446,-0.54841 -0.64984,-1.598 -0.41211,-2.33203 0.66009,-2.03799 -2.21833,-6.14453 -4.30664,-6.14453 -2.18392,0 -8.85352,-4.06376 -8.85352,-5.39453 0,-0.54043 -1.03373,-2.5795 -2.29687,-4.53125 -1.30971,-2.02375 -2.11907,-4.09875 -1.88281,-4.82812 0.64157,-1.98082 8.43975,-4.82535 13.0664,-4.76563 3.71629,0.0478 4.07334,-0.1093 5.54297,-2.43945 0.86398,-1.36985 2.13823,-2.48803 2.83203,-2.48047 0.0438,3.5e-4 0.0835,0.005 0.12695,0.006 0.44427,-0.32569 0.91465,-0.63854 1.40626,-0.92774 -0.48844,-0.14834 -0.90105,-0.36805 -1.0625,-0.625 -0.62724,-0.9945 2.53961,-4.39062 4.09374,-4.39062 0.63274,0 2.54531,-1.5511 4.24805,-3.44727 l 0.4961,-0.55273 c -0.12957,-0.26415 -0.2487,-0.53268 -0.3418,-0.8125 -0.0971,-0.29186 0.30984,-0.54904 0.55078,-0.74024 0.84498,-0.67045 1.09763,-0.67218 1.83984,-0.72851 l 0.36524,-0.40625 c 0.0435,-1.84046 0.27188,-1.96702 1.68555,-2.50977 0.0424,-0.52275 0.21871,-1.08876 0.49023,-1.69531 -0.34585,-0.10911 -0.59711,-0.46039 -0.66211,-1.21094 -0.27336,-0.36835 -0.46327,-0.6299 -0.58398,-1.14257 -0.0684,-0.12489 -0.13263,-0.25197 -0.20118,-0.37696 -1.00048,-0.72481 -2.32398,-2.37122 -4.27734,-5.25586 -2.41281,-3.56312 -2.43559,-3.80409 -0.39062,-4.32812 0.18791,-0.0483 0.38375,-0.0753 0.58203,-0.084 1.59492,-0.07 3.45433,1.09989 4.83984,2.7461 0.53463,-0.29585 0.94087,-0.4592 1.25391,-0.51367 l -0.0723,-0.15821 2.24609,-2.35742 c 0.76873,-0.80638 1.62613,-1.48655 2.33008,-1.91211 0.0187,-0.12177 0.0384,-0.24339 0.0566,-0.36523 0.002,-0.0495 0.004,-0.099 0.006,-0.14844 0.0471,-0.37601 0.083,-0.62844 0.125,-0.83203 0.003,-0.0234 0.005,-0.0469 0.008,-0.0703 -0.0434,-0.0481 0.0345,-0.27004 0.0254,-0.20312 -0.009,0.0675 -0.0171,0.13546 -0.0254,0.20312 0.003,0.003 0.002,0.0102 0.006,0.0117 0.0799,-0.33652 0.20155,-0.46609 0.54102,-0.45312 0.0477,0.002 0.17397,0.0272 0.23047,0.0332 0.40752,-0.43449 1.60523,-1.0322 3.44726,-1.625 1.75375,-0.56439 3.2409,-0.8314 4.39649,-0.81445 0.24479,0.004 0.46874,0.0267 0.68164,0.0566 0.0257,-0.79366 0.71636,-0.87643 1.5332,-0.53711 0.49418,-0.22979 0.97275,-0.3417 1.41211,-0.33203 0.32206,0.007 0.61925,0.0796 0.89063,0.19922 0.0103,-0.0318 0.0205,-0.0675 0.0312,-0.0859 0.0708,-0.12193 0.45618,-0.18127 1.02148,-0.17969 0.5653,0.002 1.31073,0.0652 2.09766,0.18946 0.73941,0.11679 1.2817,0.24029 1.70703,0.39648 0.39461,-0.719 0.99968,-1.11566 1.63281,-1.15234 0.72034,-0.0417 1.46741,0.36732 1.95117,1.24023 1.00217,-1.63962 4.36033,-1.08848 7.13672,1.29883 1.71709,1.47655 2.14152,2.33238 1.75195,3.53516 -0.37375,1.15522 -0.23615,1.49295 0.50977,1.23632 0.56344,-0.19385 1.98093,0.30219 3.14844,1.10352 4.1689,2.86137 2.92744,0.49149 -2.45899,-4.69336 -5.65459,-5.44298 -6.61293,-5.80035 -10.82226,-4.03711 -1.07522,0.45038 -1.29241,0.22516 -1.13477,-1.1875 0.1523,-1.36489 -0.61023,-2.07975 -1.68164,-2.12109 z m -0.67969,1.48046 c 0.83167,10e-6 1.30193,0.33275 1.04493,0.74024 -0.25701,0.40749 -1.14879,0.74219 -1.98047,0.74219 -0.83166,0 -1.30193,-0.3347 -1.04492,-0.74219 0.257,-0.40749 1.14878,-0.74023 1.98046,-0.74024 z m 188.59571,0.74024 c 0.1833,0 0.33203,0.3347 0.33203,0.74219 0,0.40749 -0.36043,0.74023 -0.80078,0.74023 -0.44032,0 -0.58904,-0.33274 -0.33203,-0.74023 0.257,-0.40749 0.61747,-0.74219 0.80078,-0.74219 z m -118.11328,1.19726 c -0.71172,0.0864 -1.20045,0.96257 -0.75977,2.0879 0.25009,0.63862 0.78511,1.16015 1.18945,1.16015 1.30021,0 1.74011,-1.51258 0.77149,-2.65625 -0.28645,-0.33821 -0.59483,-0.52097 -0.88477,-0.57812 -0.10872,-0.0214 -0.21473,-0.026 -0.3164,-0.0137 z m 52.73632,0.55079 c -0.44925,-0.015 -0.9444,0.26238 -1.8164,0.82226 -2.17715,1.39787 -2.98599,3.60895 -1.75977,4.81055 0.46991,0.46046 2.04669,0.73963 3.50391,0.61914 2.20635,-0.18245 2.6878,-0.53671 2.875,-2.11133 0.13752,-1.15667 -0.35198,-2.40199 -1.25977,-3.20703 -0.69011,-0.612 -1.09371,-0.91861 -1.54297,-0.93359 z m -0.0488,1.45898 c 0.34829,-0.0166 0.62704,0.31422 1.14062,0.97852 1.45142,1.87736 1.37271,2.2414 -0.59375,2.75781 -2.34504,0.61582 -2.67215,0.58106 -3.24805,-0.33203 -0.27668,-0.4387 0.23525,-1.47211 1.13868,-2.29688 0.79584,-0.72654 1.2142,-1.09086 1.5625,-1.10742 z m -119.48438,1.57031 c -0.005,0.01 0.004,0.0428 0.0293,0.10547 0.036,0.09 0.0619,0.13607 0.0957,0.2168 -0.002,-0.062 6.4e-4,-0.12035 0,-0.18164 -0.0598,-0.08 -0.11789,-0.15583 -0.125,-0.14063 z m -0.45117,1.44922 c -0.0529,-0.0127 0.11468,0.0791 0.26367,0.1543 -0.0541,-0.0743 -0.05,-0.0624 -0.10937,-0.14453 -0.0588,0.01 -0.11942,-5.4e-4 -0.1543,-0.01 z m 194.47266,0.69727 c 0.0904,0.0149 0.19096,0.0523 0.29492,0.11523 0.41593,0.25184 0.75586,0.60548 0.75586,0.78516 0,0.17968 -0.34,0.32617 -0.75586,0.32617 -0.4159,0 -0.75586,-0.35362 -0.75586,-0.78516 0,-0.32363 0.18982,-0.48607 0.46094,-0.4414 z m 10.67773,0.61914 c -1.31328,-0.1161 -2.33241,1.08245 -1.8125,2.41015 0.25009,0.63863 0.80613,1.16016 1.23437,1.16016 0.89983,0 1.05395,-1.20706 0.2129,-1.66797 -0.31197,-0.17091 -0.15298,-0.21602 0.35351,-0.0937 1.44182,0.33922 1.96674,-1.15729 0.58789,-1.67578 -0.196,-0.0737 -0.38856,-0.11623 -0.57617,-0.13281 z M 190.875,355.82031 c -0.006,0.008 -0.0114,0.0159 -0.0176,0.0234 0.007,-0.004 0.0165,-0.0113 0.0234,-0.0156 -0.002,-0.003 -0.004,-0.005 -0.006,-0.008 z m -22.01758,3.19727 c 0.0269,0.006 0.055,0.005 0.082,0.01 l -0.004,-0.006 c 2e-5,0.003 -0.10398,-0.009 -0.0781,-0.004 z m 173.7168,0.24609 c 0.37977,-0.0642 0.91683,0.74613 1.32422,2.04688 0.44984,1.43625 0.56409,2.61131 0.2539,2.61133 -0.96424,-10e-6 -2.43391,-3.88687 -1.73046,-4.57618 0.0469,-0.046 0.0981,-0.0729 0.15234,-0.082 z m -140.01563,4.95313 c -0.14692,0.25342 -0.11578,0.21222 -0.19726,0.36914 0.0538,-0.0596 0.11414,-0.11581 0.15625,-0.18164 0.0344,-0.054 0.0731,-0.24295 0.041,-0.1875 z m -0.39453,0.85742 c -0.0153,0.005 -0.0258,0.004 -0.041,0.01 -0.0245,0.0266 -0.0408,0.0405 -0.0625,0.0625 -0.0146,0.0283 -0.0335,0.0522 -0.0488,0.0781 0.0512,-0.0485 0.10117,-0.10243 0.15234,-0.15039 z m -34.49804,2.67969 c -0.0631,0.058 0.19721,0.28083 0.15039,0.20898 -0.0712,-0.10916 -0.105,-0.14924 -0.15039,-0.20898 z m 8.96289,7.82812 c 0.0174,0.19346 0.0407,0.28393 0.0586,0.45117 -0.001,-0.13696 0.005,-0.27159 0.0156,-0.40625 -0.0221,-0.0153 -0.0527,-0.0297 -0.0742,-0.0449 z m -30.92969,35.91602 c 1.17559,-0.15225 3.32675,3.05977 2.87305,4.50781 -0.22956,0.73266 -0.0475,1.7673 0.40429,2.30078 1.34381,1.58665 -1.95725,8.5918 -4.04883,8.5918 -0.90098,0 -2.02882,-0.38413 -2.50585,-0.85156 -0.65391,-0.64082 -1.33909,-0.54862 -2.77149,0.37109 -3.47266,2.22966 -3.91087,0.88506 -0.51367,-1.57617 1.66275,-1.20465 2.61234,-2.95988 3.89844,-7.20508 0.93527,-3.08719 2.03573,-5.8157 2.44336,-6.0625 0.0686,-0.0416 0.14233,-0.066 0.2207,-0.0762 z m 40.875,7.58007 c -0.015,0.0524 -0.04,0.12975 -0.0488,0.16797 0.18785,1.66285 0.1114,1.00697 0.0488,-0.16797 z m 509.67969,1.28321 c -0.0865,0.0551 -0.16029,0.10476 -0.25,0.17187 0.0575,-0.005 0.11033,-0.0131 0.16797,-0.0176 0.0266,-0.0196 0.0534,-0.039 0.0801,-0.0586 0.002,-0.0296 -7.5e-4,-0.0652 0.002,-0.0957 z m -63.32813,17.10742 c 0.22192,-0.0377 1.33888,0.8506 2.9336,2.36719 2.12562,2.02212 3.86718,4.19832 3.86718,4.83789 0,1.20412 13.03171,13.47179 16.98438,15.98828 l 2.24218,1.42773 -2.62109,0.37305 c -2.44773,0.34881 -2.61522,0.54766 -2.54492,3.02344 0.0412,1.45735 0.92585,4.4696 1.96484,6.69336 1.7178,3.67691 2.34395,4.26215 6.91797,6.46875 5.19428,2.5059 6.28276,3.39059 3.33008,2.71094 -0.93566,-0.21563 -2.10104,-0.1332 -2.58984,0.18164 -0.48881,0.31494 -0.99984,1.90072 -1.13477,3.52539 l -0.24609,2.95507 -1.41797,-2.59375 c -2.61695,-4.78586 -6.83585,-11.46544 -8.57617,-13.57812 -0.94889,-1.15185 -1.72461,-2.38988 -1.72461,-2.75195 0,-1.65608 -8.49153,-13.31766 -11.26563,-15.47071 -1.70445,-1.32279 -3.09961,-2.74422 -3.09961,-3.16015 0,-0.41594 -0.84334,-2.40327 -1.875,-4.41602 -1.56419,-3.0517 -1.72324,-3.90098 -0.95312,-5.10937 0.73625,-1.15544 0.71592,-1.78605 -0.0996,-3.11524 -0.14074,-0.22922 -0.16577,-0.34486 -0.0918,-0.35742 z m -22.38672,2.81055 c -0.60795,0.0139 -1.27748,0.45711 -1.75,1.32226 -0.51401,0.94141 -0.47488,1.63483 0.125,2.22266 1.90402,1.86576 3.73479,0.46666 3.00391,-2.29492 -0.22477,-0.84913 -0.77095,-1.26395 -1.37891,-1.25 z m -0.30078,1.43554 c 0.4159,0 0.75586,0.33273 0.75586,0.74024 0,0.40751 -0.34004,0.74219 -0.75586,0.74219 -0.41594,0 -0.75586,-0.33472 -0.75586,-0.74219 0,-0.40755 0.34,-0.74024 0.75586,-0.74024 z m -453.74609,4.44532 c 4.86646,0 6.15234,1.22684 6.15234,5.86523 0,3.59033 1.02876,5.20221 3.9707,6.22461 0.72772,0.25289 1.32227,0.80237 1.32227,1.22266 0,0.94786 -2.77644,1.01743 -3.36523,0.082 -0.55755,-0.884 -6.04839,-2.80109 -9.67774,-3.37891 -2.10215,-0.33468 -2.83398,-0.80993 -2.83398,-1.83789 0,-0.76252 0.35474,-1.5028 0.78906,-1.64453 0.97043,-0.31699 1.17246,-2.63108 0.42383,-4.86524 -0.52921,-1.57865 -0.35991,-1.66796 3.21875,-1.66796 z m 77.74023,19.63086 c 0.0167,0.0556 0.0336,0.10746 0.0488,0.16406 0.25817,0.009 0.52787,0.0191 0.72656,0.0312 -0.0297,-0.0579 -0.48379,-0.19802 -0.77539,-0.19531 z m -58.88086,17.48632 c 0.82307,-0.006 2.53594,1.71053 3.59571,3.71875 0.59421,1.126 2.02683,2.59687 3.18554,3.26758 2.28845,1.32465 4.70703,4.89037 4.70703,6.94141 0,0.73508 1.1162,1.80617 2.60938,2.5039 3.21547,1.50256 5.27836,4.4163 4.68945,6.62305 -0.25716,0.96363 0.0333,2.14759 0.70508,2.875 0.74796,0.80988 0.9698,1.90579 0.64453,3.17578 -0.64067,2.50122 -1.21303,2.44464 -2.85742,-0.2832 -0.73693,-1.22245 -1.97405,-2.22266 -2.74805,-2.22266 -0.774,0 -3.14951,-0.85803 -5.27929,-1.90625 -3.02818,-1.49042 -3.96978,-2.38195 -4.31836,-4.08984 -0.30732,-1.50573 -1.35741,-2.71605 -3.38086,-3.89844 -2.91059,-1.70082 -2.92183,-1.72737 -1.41407,-3.06445 1.88143,-1.66847 2.03706,-6.39331 0.3418,-10.36914 -0.64811,-1.52001 -0.99763,-2.94246 -0.77539,-3.16016 0.0768,-0.0752 0.17734,-0.11052 0.29492,-0.11133 z m 62.16211,8.60157 c -0.30314,0.41005 -0.59999,0.83054 -0.91406,1.21875 -0.0213,0.0263 -0.0462,0.0472 -0.0684,0.0723 0.48667,0.35751 1.03131,0.82065 1.71484,1.42578 1.66908,1.47761 3.37443,2.68555 3.78907,2.68555 1.55053,0 0.67318,2.76072 -1.53516,4.83398 -1.25822,1.18122 -2.10724,2.60395 -1.88867,3.16211 0.26231,0.66981 -0.46965,0.49052 -2.15039,-0.52734 -3.23365,-1.95848 -6.96497,-2.01931 -8.16602,-0.13477 -0.69688,1.0935 -1.17983,1.23137 -2.17383,0.62305 -1.85505,-1.13522 -4.06401,-0.13024 -3.28906,1.4961 0.33817,0.70902 0.67249,2.85349 0.74219,4.76367 0.19933,5.46455 0.97778,8.44016 2.57812,9.85937 1.46386,1.29816 1.45995,1.33484 -0.39257,3.49219 -1.38927,1.6179 -1.87305,3.04742 -1.87305,5.53711 0,2.49815 -0.48334,3.91776 -1.89063,5.55664 -2.19914,2.56105 -2.46062,5.4062 -0.5664,6.15625 1.17559,0.46552 1.13257,0.59551 -0.37891,1.16601 -1.63011,0.61595 -2.48255,3.6543 -1.02539,3.6543 1.49768,0 1.53014,2.57006 0.0684,5.00196 -0.85486,1.41915 -2.03595,3.71287 -2.625,5.09374 -1.02147,2.39562 -0.98428,2.56771 0.78711,3.70508 1.55226,0.9967 2.40779,1.05641 5.2168,0.36328 2.16969,-0.53521 3.97863,-0.58461 5.10156,-0.13867 0.9567,0.37996 2.66491,0.88412 3.79687,1.1211 1.1753,0.24593 2.7996,1.49977 3.78711,2.92382 0.95112,1.37159 3.24152,3.73057 5.08789,5.24219 1.84637,1.51162 3.98848,4.13789 4.76172,5.83399 0.77324,1.69613 2.22038,3.91759 3.21485,4.9375 1.59698,1.63789 1.72828,2.20082 1.12304,4.8164 -0.60209,2.60198 -0.44469,3.30316 1.30469,5.78321 1.09505,1.55244 2.58975,3.1364 3.32031,3.51953 1.98878,1.043 4.89982,0.8392 5.96289,-0.41602 0.53689,-0.6339 2.18592,-1.11133 3.83789,-1.11133 3.71436,0 6.32949,-1.18142 7.54883,-3.41406 0.17048,-0.31214 0.34612,-0.56748 0.53907,-0.78516 -0.68763,0.15776 -1.35016,0.27473 -1.99219,0.35547 -1.93524,2.01629 -2.80961,2.36328 -5.59571,2.36328 -2.09699,0 -3.75682,0.42527 -4.33789,1.11133 -1.60288,1.89256 -4.78061,1.33058 -7.33789,-1.29687 -2.17717,-2.23699 -2.31525,-2.69018 -1.93359,-6.39453 0.33816,-3.28218 0.1782,-4.11558 -0.90039,-4.70704 -0.72069,-0.3946 -2.08798,-2.36342 -3.03906,-4.375 -0.95108,-2.01095 -3.72518,-5.59542 -6.16602,-7.96484 -2.44084,-2.36942 -5.09405,-5.02558 -5.89453,-5.90039 -0.80047,-0.87485 -2.03405,-1.58984 -2.74219,-1.58984 -0.70813,0 -2.4804,-0.48739 -3.9375,-1.08399 -1.96496,-0.80447 -3.30635,-0.90087 -5.1914,-0.37109 -3.10004,0.87073 -3.76528,0.87437 -5.1211,0.0332 -0.86527,-0.53684 -0.62406,-1.4135 1.32227,-4.79297 2.54184,-4.41343 2.87855,-6.31104 1.55078,-8.74218 -0.47182,-0.86404 -0.51162,-1.32657 -0.0859,-1.07032 1.05688,0.64007 2.68592,-1.51286 2.16016,-2.85547 -0.24139,-0.61644 -0.96084,-1.12109 -1.59766,-1.12109 -1.63492,0 -1.4367,-1.46571 0.4668,-3.45117 l 1.625,-1.69531 2.60937,2.24414 c 2.49121,2.14337 4.51537,2.60618 5.31836,1.45898 -0.3817,-0.31724 -0.67752,-0.61017 -0.91211,-0.89062 -0.64466,0.35296 -2.21505,-0.37322 -4.24414,-2.04102 l -2.61719,-2.15039 1.55665,-2.0625 c 1.21511,-1.60788 1.95304,-2.30608 2.78125,-2.2832 0.49692,0.0137 1.02561,0.28823 1.71093,0.77929 1.20821,0.8657 1.29012,1.23417 0.48438,2.18555 -0.64462,0.76111 -0.71357,1.40622 -0.29102,2.32227 0.077,-0.59152 0.17426,-1.21683 0.3086,-2.06641 0.50832,1.71769 1.04627,3.42759 1.57226,5.14063 0.025,-0.24985 0.0273,-0.51891 0.008,-0.82422 -0.10189,-1.22249 -0.17577,-3.43288 -0.16406,-4.91211 0.009,-1.07065 -0.12394,-1.84581 -0.40234,-2.37891 -0.0414,-0.0215 -0.0815,-0.0453 -0.12305,-0.0664 -0.0276,-0.0151 -0.12064,-0.0272 -0.0898,-0.0234 0.0631,0.0136 0.0875,0.0161 0.18945,0.041 -0.0137,-0.0247 -0.0247,-0.0546 -0.0391,-0.0781 v -0.002 c -0.88092,-0.29829 -0.96574,-0.29135 -1.08594,-0.34765 -0.80536,0.67953 -1.59294,0.67262 -1.58398,-0.79492 -0.16645,-0.0899 -0.33387,-0.17768 -0.50391,-0.25977 -0.30686,0.006 -0.5954,-0.001 -0.60742,-0.0527 -0.0961,-0.41416 -0.16818,-0.67671 -0.25586,-1.02149 -1.13129,0.15471 -1.62809,0.50715 -1.81055,1.19141 -0.27462,1.02988 -0.36397,0.97075 -0.43359,-0.28125 -0.0482,-0.86695 0.44142,-2.00548 1.08789,-2.53125 0.23581,-0.19178 0.43458,-0.37382 0.6289,-0.55664 -0.18497,-0.96184 -0.0344,-1.30015 0.86329,-1.35547 0.0629,-0.004 0.15819,10e-4 0.22851,0 0.60569,-1.14843 0.32077,-2.26012 -0.83398,-3.69727 -1.23209,-1.53335 -1.80203,-3.49471 -2.1211,-7.30273 -0.23993,-2.86348 -0.72965,-5.86534 -1.08984,-6.66992 -0.60911,-1.36067 -0.50635,-1.34739 1.48242,0.18554 2.72571,2.10116 3.44727,2.07691 3.44727,-0.11718 0,-2.73015 2.71897,-2.99608 6.7832,-0.66211 3.47668,1.99661 4.34735,2.07689 3.94531,0.36132 -0.12311,-0.52477 0.81448,-2.23985 2.08399,-3.81054 2.84743,-3.52294 2.8948,-4.83079 0.23437,-6.51563 -1.14083,-0.72249 -2.81483,-2.14732 -3.71875,-3.16601 -0.35568,-0.4009 -0.66722,-0.71288 -0.99414,-0.95703 z m -55.85547,15.79297 2.91407,1.64453 c 2.96013,1.66953 4.33706,4.55516 2.95507,6.19336 -0.37934,0.44968 -0.6805,1.61723 -0.66992,2.59375 0.0105,0.97651 -0.11243,2.60821 -0.27344,3.62695 -0.16098,1.01873 -0.0533,2.35166 0.24024,2.96289 0.71797,1.49495 -0.2243,5.1251 -1.00781,3.88281 -0.31866,-0.50525 -0.35943,-1.26512 -0.0918,-1.68945 0.63711,-1.01016 -3.6096,-9.60791 -5.63086,-11.40039 -1.95451,-1.73322 -1.94941,-2.23462 -0.004,-5.32813 z m 8.14063,3.45507 c 0.46586,-0.0663 1.20174,0.63154 1.92969,2.13477 2.11045,4.35813 4.8139,4.12928 4.98632,-0.42188 0.0551,-1.45334 0.34373,-1.13035 1.33594,1.49805 1.89441,5.01982 2.18883,5.28019 5.68164,5.02734 l 3.14258,-0.22851 0.22266,4.56836 c 0.1401,2.8642 0.63466,4.90212 1.32422,5.46289 1.57736,1.28334 1.35444,2.37403 -0.375,1.83594 -1.78184,-0.55416 -5.75112,1.33397 -7.03321,3.3457 -0.51122,0.80213 -1.52383,1.45703 -2.25195,1.45703 -0.72813,0 -1.75014,0.66748 -2.26953,1.48242 -1.13894,1.78719 -1.77769,1.87078 -2.38867,0.31055 -0.80385,-2.0527 -0.50112,-3.50525 1.07421,-5.14844 2.41758,-2.5217 1.26297,-4.05273 -3.05468,-4.05273 h -3.625 l -0.26367,-3.77539 c -0.1441,-2.07644 -0.005,-3.92941 0.30859,-4.11914 0.3134,-0.1897 0.37142,-1.123 0.12891,-2.07227 -0.24453,-0.95471 -0.0586,-1.95929 0.41796,-2.24805 0.51122,-0.30962 0.6733,-1.36844 0.39649,-2.60351 -0.34902,-1.55707 -0.15336,-2.38684 0.3125,-2.45313 z m -8.35742,9.21875 c 0.32952,-0.11719 1.07556,0.86905 2.00586,2.89063 0.9469,2.05769 1.13212,3.22831 0.59375,3.75586 -0.86388,0.84654 -1.50653,-0.26868 -2.50196,-4.33594 -0.35759,-1.4611 -0.35085,-2.21939 -0.0977,-2.31055 z m 53.82812,11.78516 c -0.0157,0.0534 -0.0285,0.0998 -0.0469,0.16016 0.002,0.004 0.004,0.009 0.006,0.0137 0.0164,-0.0321 0.0177,-0.0365 0.041,-0.17383 z m 84.22852,30.67969 c 1.87759,-0.0269 4.6403,1.07369 6.10547,2.66015 1.73058,1.87351 4.16355,1.87777 4.66406,-0.004 0.67885,-2.54385 3.04578,-2.57352 5.94531,-0.0801 1.45731,1.25386 3.48375,2.2793 4.50391,2.2793 4.02805,0 16.3454,4.52203 19.13086,7.02343 l 2.74023,2.46094 -3.38281,0.87305 c -1.86109,0.48075 -4.51146,1.51634 -5.89063,2.30078 -1.59342,0.90625 -3.72911,1.38135 -5.85547,1.30273 -2.20343,-0.0817 -3.82014,0.29668 -4.73437,1.10743 -1.57985,1.40041 -4.67188,1.65682 -4.67188,0.38671 0,-1.34751 -7.59228,-0.15141 -9.96875,1.57032 v -0.002 c -2.85098,2.06548 -10.1111,1.82491 -11.99414,-0.39843 -0.49695,-0.58678 -1.86309,-1.06836 -3.03515,-1.06836 -1.17206,0 -2.33692,-0.32755 -2.58985,-0.72852 -0.25291,-0.40101 -1.99246,-1.16607 -3.86523,-1.70117 -3.28938,-0.93986 -3.3573,-1.01705 -1.9707,-2.24609 1.36206,-1.20772 1.5434,-1.18941 3.5332,0.34374 1.75838,1.35534 2.33586,1.4692 3.57812,0.70899 1.0817,-0.66183 1.75077,-0.69027 2.48047,-0.0937 0.72575,0.59089 2.00305,0.58126 4.66602,-0.0234 6.07065,-1.38421 5.94302,-1.2109 3.18164,-4.28906 -1.39616,-1.55633 -2.9137,-3.46814 -3.37305,-4.24805 -0.70122,-1.19051 -1.02674,-1.26209 -2.02148,-0.45312 -0.97142,0.79037 -1.46745,0.78734 -2.75586,0.002 -2.12506,-1.30046 -2.00234,-1.70614 1.08008,-3.57226 1.45803,-0.88302 2.48329,-1.87267 2.27734,-2.19922 -0.20593,-0.32652 0.11762,-0.99391 0.7207,-1.48438 0.34823,-0.2832 0.87609,-0.41877 1.50196,-0.42773 z m -22.50196,3.05468 c -0.007,0.0104 -0.0143,0.0209 -0.0215,0.0312 0.008,0.002 0.0155,0.002 0.0234,0.004 -0.003,-0.0116 9.6e-4,-0.0235 -0.002,-0.0352 z m 10.81446,7.72852 c 3.24644,0 3.59304,0.43625 2.01953,2.54492 -0.80333,1.07656 -1.31071,1.18596 -2.5293,0.54688 -1.16601,-0.61157 -1.91832,-0.53018 -3.19726,0.34765 -2.47971,1.70196 -1.81984,4.16146 1.28125,4.7793 1.3685,0.27266 3.1253,1.06113 3.90429,1.75195 0.77899,0.69067 2.05953,1.14993 2.84571,1.01953 0.78617,-0.1305 2.26054,0.29579 3.27734,0.94727 1.01681,0.65151 3.80619,1.42306 6.19727,1.71484 4.42012,0.53946 5.01374,0.95427 3.49414,2.44336 -1.32897,1.30224 -0.0972,4.61224 2.00781,5.39649 1.56072,0.58144 1.86914,1.18778 1.86914,3.67773 0,1.64005 0.0256,3.22397 0.0566,3.51953 0.11867,1.12415 -3.4534,0.42636 -7.06641,-1.38086 -0.86433,-0.4323 -2.91365,-0.27064 -5.77929,0.45704 -2.44221,0.61948 -4.77153,1.1289 -5.17579,1.1289 -0.43417,0 -0.60509,-2.04481 -0.41796,-5.00195 0.17404,-2.75055 -0.006,-5.46284 -0.39844,-6.02735 -0.9399,-1.35057 -4.14315,-0.56204 -6.10547,1.50196 -0.8199,0.86233 -1.98078,1.38346 -2.58008,1.1582 -0.59929,-0.22537 -1.87276,0.12613 -2.83008,0.7832 -1.24661,0.85554 -1.8266,0.94481 -2.04101,0.31446 -0.16466,-0.48405 -1.57537,-0.87891 -3.13477,-0.87891 -1.5594,0 -3.05847,-0.22031 -3.33203,-0.48828 -0.27355,-0.26804 0.72545,-1.95015 2.2207,-3.73828 1.90076,-2.27305 2.59325,-3.72245 2.30079,-4.81836 -0.23008,-0.86215 -0.0952,-2.15978 0.30078,-2.88477 0.55291,-1.01238 0.33181,-1.58488 -0.95313,-2.46679 -2.46624,-1.69421 -0.85372,-2.88864 2.31446,-1.7168 2.23157,0.82564 2.59639,0.76073 3.74804,-0.66797 0.70172,-0.87054 2.04288,-1.80726 2.97852,-2.08203 0.93563,-0.27458 1.70117,-0.81138 1.70117,-1.19141 0,-0.37991 1.36008,-0.68945 3.02344,-0.68945 z m 2.96093,4.53516 c 0.26266,0.0106 0.48963,0.0801 0.61524,0.20312 0.25123,0.24628 -0.19517,0.41891 -0.99219,0.38867 -0.88078,-0.0356 -1.06017,-0.21066 -0.45703,-0.44726 0.27289,-0.10696 0.57133,-0.15516 0.83398,-0.14453 z" />
    <path
       style="fill:none;stroke:#000000;stroke-width:0.26458332px;stroke-linecap:butt;stroke-linejoin:miter;stroke-opacity:1"
       d="m 59.305933,130.297 c 0.91064,0.0441 -0.119124,0.0466 0.508799,-0.079 0.154432,-0.0309 0.314981,0 0.472469,0 0.15749,0 0.314981,0 0.472472,0 0.06299,0 0.127873,0.0153 0.188986,0 0.434322,-0.10858 0.02143,-0.0945 0.283483,-0.0945 0.0315,0 0.063,0 0.09449,0 0.0315,0 0.07222,-0.0223 0.0945,0 0.04454,0.0445 -0.04454,0.14444 0,0.18899 0.02273,0.0227 0.355237,-0.0227 0.377976,0 0.02228,0.0223 -0.02228,0.0722 0,0.0945 0.04454,0.0445 0.132643,-0.0282 0.188986,0 0.03984,0.0199 0.05224,0.0804 0.0945,0.0945 0.06838,0.0228 0.346827,-0.0311 0.377976,0 0.02228,0.0223 -0.02228,0.0722 0,0.0945 0.04725,0.0472 0.236236,-0.0472 0.283483,0 0.02228,0.0223 -0.02817,0.0804 0,0.0945 0.01479,0.007 0.44605,0 0.472469,0 0.0315,0 0.07222,0.0223 0.09449,0 0.02228,-0.0223 -0.0315,-0.0945 0,-0.0945 0.0315,0 0.0315,0.0945 0,0.0945 -0.063,0 0.0453,-0.14522 0,-0.18899 -0.141465,-0.13671 -0.312529,-0.23902 -0.468791,-0.35853"
       id="path5044"
       inkscape:connector-curvature="0" />
    <path
       style="fill:none;stroke:#000000;stroke-width:0.26458332px;stroke-linecap:butt;stroke-linejoin:miter;stroke-opacity:1"
       d="m 71.666943,156.03854 c 0.207,0.0866 0.410091,0.18323 0.621004,0.25982 0.128373,0.0466 0.0873,-0.0437 0.188986,-0.0945 0.05635,-0.0282 0.132644,0.0282 0.188989,0 0.03984,-0.0199 0.05224,-0.0804 0.09449,-0.0945 0.08504,-0.0284 0.198437,0.0283 0.283482,0 0.06682,-0.0223 0.122172,-0.0722 0.188987,-0.0945 0.05976,-0.0199 0.129225,0.0199 0.188989,0 0.06682,-0.0223 0.122171,-0.0722 0.188989,-0.0945 0.05976,-0.0199 0.129223,0.0199 0.188987,0 0.06682,-0.0223 0.122171,-0.0722 0.188989,-0.0945 0.02988,-0.01 0.06632,0.0141 0.09449,0 0.03984,-0.0199 0.05465,-0.0746 0.09449,-0.0945 0.05126,-0.0256 0.35212,0.0258 0.377975,0 0.02228,-0.0223 -0.02228,-0.0722 0,-0.0945 0.02228,-0.0223 0.063,0 0.0945,0 0.02291,0 0.280443,-0.003 0.283483,0 0.02228,0.0223 0,0.063 0,0.0945 0,0.0315 0,0.063 0,0.0945 0,0.0315 0.03087,0.0882 0,0.0945 -0.139909,0.0284 -0.285499,-0.005 -0.428247,-0.007"
       id="path5046"
       inkscape:connector-curvature="0" />
    <path
       style="fill:none;stroke:#000000;stroke-width:0.26458332px;stroke-linecap:butt;stroke-linejoin:miter;stroke-opacity:1"
       d="m 143.97466,85.969 c 0.18119,0.01474 0.19578,-0.196707 0.31775,-0.257691 0.0756,-0.0378 0.20789,0.0378 0.28348,0 0.39326,-0.196633 -0.10102,0.0065 0.0945,-0.188989 0.0223,-0.02228 0.0722,0.02228 0.0945,0 0.0445,-0.04454 -0.0446,-0.144444 0,-0.188989 0.0223,-0.02228 0.0722,0.02228 0.0945,0 0.0223,-0.02228 -0.0141,-0.06632 0,-0.09449 0.0199,-0.03984 0.0746,-0.05465 0.0945,-0.09449 0.0141,-0.02817 -0.0223,-0.07222 0,-0.09449 0.0223,-0.02228 0.0722,0.02228 0.0945,0 0.0223,-0.02228 -0.0315,-0.0945 0,-0.0945 0.0315,0 0,0.125992 0,0.0945 0,-0.125995 0,-0.251986 0,-0.377978 0,-0.0315 -0.0315,-0.09449 0,-0.09449 0.063,0 -0.0485,0.229206 0,0.18899 0.0553,-0.04586 0.0731,-0.123659 0.1097,-0.185487"
       id="path5104"
       inkscape:connector-curvature="0" />
  </g>
</svg>
